<?xml version="1.0" encoding="UTF-8" standalone="no"?>
<!-- Created with Inkscape (http://www.inkscape.org/) -->

<svg
   xmlns:dc="http://purl.org/dc/elements/1.1/"
   xmlns:cc="http://creativecommons.org/ns#"
   xmlns:rdf="http://www.w3.org/1999/02/22-rdf-syntax-ns#"
   xmlns:svg="http://www.w3.org/2000/svg"
   xmlns="http://www.w3.org/2000/svg"
   xmlns:sodipodi="http://sodipodi.sourceforge.net/DTD/sodipodi-0.dtd"
   xmlns:inkscape="http://www.inkscape.org/namespaces/inkscape"
   width="60"
   height="59.999962"
   viewBox="0 0 60 59.999964"
   version="1.1"
   id="svg891"
   inkscape:version="0.92.4 (5da689c313, 2019-01-14)"
   sodipodi:docname="actionbutton.svg">
  <defs
     id="defs885" />
  <sodipodi:namedview
     id="base"
     pagecolor="#ffffff"
     bordercolor="#666666"
     borderopacity="1.0"
     inkscape:pageopacity="0.0"
     inkscape:pageshadow="2"
     inkscape:zoom="7.919596"
     inkscape:cx="0.41725615"
     inkscape:cy="42.281585"
     inkscape:document-units="px"
     inkscape:current-layer="layer1"
     showgrid="false"
     units="px"
     inkscape:showpageshadow="false"
     inkscape:pagecheckerboard="true"
     fit-margin-top="8"
     fit-margin-left="8"
     fit-margin-right="8"
     fit-margin-bottom="8" />
  <metadata
     id="metadata888">
    <rdf:RDF>
      <cc:Work
         rdf:about="">
        <dc:format>image/svg+xml</dc:format>
        <dc:type
           rdf:resource="http://purl.org/dc/dcmitype/StillImage" />
        <dc:title />
      </cc:Work>
    </rdf:RDF>
  </metadata>
  <g
     inkscape:label="Layer 1"
     inkscape:groupmode="layer"
     id="layer1"
     transform="translate(3.8477115,-1071.6999)">
    <g
       id="normal">
      <rect
         y="1079.7"
         x="4.1522884"
         height="22"
         width="22"
         id="rect874"
         style="opacity:1;fill:none;fill-opacity:0.17241378;fill-rule:evenodd;stroke:none;stroke-width:2.13072443;stroke-linecap:round;stroke-miterlimit:4;stroke-dasharray:none;stroke-opacity:1" />
      <circle
         style="opacity:1;fill:#dcebee;fill-opacity:0.78325123;fill-rule:evenodd;stroke:none;stroke-width:3.55456138;stroke-linecap:round;stroke-miterlimit:4;stroke-dasharray:none;stroke-opacity:1"
         id="circle1462"
         cx="15.152288"
         cy="1090.7"
         r="9" />
      <path
         inkscape:connector-curvature="0"
         id="circle1469"
         d="m 15.152289,1081.7 a 9,9 0 0 0 -9.0000004,9 9,9 0 0 0 0.01172,0.3594 9,9 0 0 1 8.9882814,-8.7578 9,9 0 0 1 8.986328,8.6543 9,9 0 0 0 0.01367,-0.2559 9,9 0 0 0 -8.999999,-9 z"
         style="opacity:1;fill:#f5f9fa;fill-opacity:0.58128077;fill-rule:evenodd;stroke:none;stroke-width:3.55456138;stroke-linecap:round;stroke-miterlimit:4;stroke-dasharray:none;stroke-opacity:1" />
    </g>
    <g
       id="hover"
       transform="translate(-12.589285,-3.3034668)">
      <rect
         style="opacity:1;fill:none;fill-opacity:0.48275865;fill-rule:evenodd;stroke:none;stroke-width:2.13072443;stroke-linecap:round;stroke-miterlimit:4;stroke-dasharray:none;stroke-opacity:1"
         id="rect1457"
         width="22"
         height="22"
         x="38.741573"
         y="1083.0034" />
      <path
         inkscape:connector-curvature="0"
         id="circle1484"
         d="m 49.741573,1084.5034 a 9.5,9.5 0 0 0 -9.5,9.5 9.5,9.5 0 0 0 9.5,9.5 9.5,9.5 0 0 0 9.5,-9.5 9.5,9.5 0 0 0 -9.5,-9.5 z m 0,0.5 a 9,9 0 0 1 9,9 9,9 0 0 1 -9,9 9,9 0 0 1 -9,-9 9,9 0 0 1 9,-9 z"
         style="opacity:1;fill:#dcebee;fill-opacity:0.83743843;fill-rule:evenodd;stroke:none;stroke-width:3.75203705;stroke-linecap:round;stroke-miterlimit:4;stroke-dasharray:none;stroke-opacity:1" />
    </g>
    <g
       id="pressed">
      <rect
         transform="scale(1,-1)"
         style="opacity:1;fill:none;fill-opacity:0.20689655;fill-rule:evenodd;stroke:none;stroke-width:2.13072443;stroke-linecap:round;stroke-miterlimit:4;stroke-dasharray:none;stroke-opacity:1"
         id="rect1491"
         width="22"
         height="22"
         x="4.1522884"
         y="-1123.7" />
      <circle
         transform="scale(1,-1)"
         r="9"
         cy="-1112.7"
         cx="15.152288"
         id="circle1493"
         style="opacity:1;fill:#1f444d;fill-opacity:1;fill-rule:evenodd;stroke:none;stroke-width:3.55456138;stroke-linecap:round;stroke-miterlimit:4;stroke-dasharray:none;stroke-opacity:1" />
      <path
         style="opacity:1;fill:#f5f9fa;fill-opacity:0.78325124;fill-rule:evenodd;stroke:none;stroke-width:3.55456138;stroke-linecap:round;stroke-miterlimit:4;stroke-dasharray:none;stroke-opacity:1"
         d="m 15.152289,1121.6999 a 9,9 0 0 1 -9.0000004,-9 9,9 0 0 1 0.01172,-0.3594 9,9 0 0 0 8.9882814,8.7578 9,9 0 0 0 8.986328,-8.6543 9,9 0 0 1 0.01367,0.2559 9,9 0 0 1 -8.999999,9 z"
         id="path1495"
         inkscape:connector-curvature="0" />
      <path
         inkscape:connector-curvature="0"
         id="path1502"
         d="m 15.152289,1103.7 a 9,9 0 0 0 -9.0000004,9 9,9 0 0 0 0.01172,0.3594 9,9 0 0 1 8.9882814,-8.7578 9,9 0 0 1 8.986328,8.6543 9,9 0 0 0 0.01367,-0.2559 9,9 0 0 0 -8.999999,-9 z"
         style="opacity:1;fill:#101c20;fill-opacity:0.78325123;fill-rule:evenodd;stroke:none;stroke-width:3.55456138;stroke-linecap:round;stroke-miterlimit:4;stroke-dasharray:none;stroke-opacity:1" />
    </g>
  </g>
</svg>
