<?xml version="1.0" encoding="UTF-8"?>
<!-- Created with Inkscape (http://www.inkscape.org/) -->
<svg id="svg891" width="60" height="60" version="1.1" viewBox="0 0 60 60" xmlns="http://www.w3.org/2000/svg" xmlns:cc="http://creativecommons.org/ns#" xmlns:dc="http://purl.org/dc/elements/1.1/" xmlns:rdf="http://www.w3.org/1999/02/22-rdf-syntax-ns#">
 <metadata id="metadata888">
  <rdf:RDF>
   <cc:Work rdf:about="">
    <dc:format>image/svg+xml</dc:format>
    <dc:type rdf:resource="http://purl.org/dc/dcmitype/StillImage"/>
    <dc:title/>
   </cc:Work>
  </rdf:RDF>
 </metadata>
 <g id="layer1" transform="translate(3.8477 -1071.7)">
  <g id="normal">
   <rect id="rect874" x="4.1523" y="1079.7" width="22" height="22" fill="none"/>
   <circle id="circle1462" cx="15.152" cy="1090.7" r="9" fill="#dcebee" fill-opacity=".78325" fill-rule="evenodd"/>
   <path id="circle1469" d="m15.152 1081.7a9 9 0 0 0-9 9 9 9 0 0 0 0.01172 0.3594 9 9 0 0 1 8.9883-8.7578 9 9 0 0 1 8.9863 8.6543 9 9 0 0 0 0.01367-0.2559 9 9 0 0 0-9-9z" fill="#f5f9fa" fill-opacity=".58128" fill-rule="evenodd"/>
  </g>
  <g id="hover" transform="translate(-12.589 -3.3035)">
   <rect id="rect1457" x="38.742" y="1083" width="22" height="22" fill="none"/>
   <path id="circle1484" d="m49.742 1084.5a9.5 9.5 0 0 0-9.5 9.5 9.5 9.5 0 0 0 9.5 9.5 9.5 9.5 0 0 0 9.5-9.5 9.5 9.5 0 0 0-9.5-9.5zm0 0.5a9 9 0 0 1 9 9 9 9 0 0 1-9 9 9 9 0 0 1-9-9 9 9 0 0 1 9-9z" fill="#dcebee" fill-opacity=".83744" fill-rule="evenodd"/>
  </g>
  <g id="pressed">
   <rect id="rect1491" transform="scale(1,-1)" x="4.1523" y="-1123.7" width="22" height="22" fill="none"/>
   <circle id="circle1493" transform="scale(1,-1)" cx="15.152" cy="-1112.7" r="9" fill="#1f444d" fill-rule="evenodd"/>
   <path id="path1495" d="m15.152 1121.7a9 9 0 0 1-9-9 9 9 0 0 1 0.01172-0.3594 9 9 0 0 0 8.9883 8.7578 9 9 0 0 0 8.9863-8.6543 9 9 0 0 1 0.01367 0.2559 9 9 0 0 1-9 9z" fill="#f5f9fa" fill-opacity=".78325" fill-rule="evenodd"/>
   <path id="path1502" d="m15.152 1103.7a9 9 0 0 0-9 9 9 9 0 0 0 0.01172 0.3594 9 9 0 0 1 8.9883-8.7578 9 9 0 0 1 8.9863 8.6543 9 9 0 0 0 0.01367-0.2559 9 9 0 0 0-9-9z" fill="#101c20" fill-opacity=".78325" fill-rule="evenodd"/>
  </g>
 </g>
</svg>
