<?xml version="1.0" encoding="UTF-8"?>
<!-- Created with Inkscape (http://www.inkscape.org/) -->
<svg id="svg832" width="48" height="48" version="1.1" viewBox="0 0 48 48" xmlns="http://www.w3.org/2000/svg" xmlns:cc="http://creativecommons.org/ns#" xmlns:dc="http://purl.org/dc/elements/1.1/" xmlns:rdf="http://www.w3.org/1999/02/22-rdf-syntax-ns#">
 <style id="current-color-scheme" type="text/css">.ColorScheme-Text {
      }
      .ColorScheme-Background{
      }
      .ColorScheme-Highlight{
      }
      .ColorScheme-ViewText {
      }
      .ColorScheme-ViewBackground{
      }
      .ColorScheme-ViewHover {
      }
      .ColorScheme-ViewFocus{
      }
      .ColorScheme-ButtonText {
      }
      .ColorScheme-ButtonBackground{
      }
      .ColorScheme-ButtonHover {
      }
      .ColorScheme-ButtonFocus{
      }</style>
 <metadata id="metadata829">
  <rdf:RDF>
   <cc:Work rdf:about="">
    <dc:format>image/svg+xml</dc:format>
    <dc:type rdf:resource="http://purl.org/dc/dcmitype/StillImage"/>
    <dc:title/>
   </cc:Work>
  </rdf:RDF>
 </metadata>
 <g id="layer1" transform="translate(-2.8449 -1077.1)">
  <g id="up-arrow" transform="translate(-3.2589 -1.5625)">
   <rect id="rect821" x="14.104" y="1086.7" width="16" height="16" fill="none"/>
   <path id="qqa" class="ColorScheme-Text" d="m22.103 1091.9-0.94435 0.9444h0.0014l-3.6225 3.6224 0.94435 0.9444 3.6225-3.6225 3.6225 3.6225 0.94435-0.9444-3.6225-3.6224h0.0014l-0.94435-0.9444h-0.0013z" color-rendering="auto" dominant-baseline="auto" fill="#cadce0" image-rendering="auto" shape-rendering="auto" solid-color="#cadce0" style="font-feature-settings:normal;font-variant-alternates:normal;font-variant-caps:normal;font-variant-ligatures:normal;font-variant-numeric:normal;font-variant-position:normal;isolation:auto;mix-blend-mode:normal;shape-padding:0;text-decoration-color:#cadce0;text-decoration-line:none;text-decoration-style:solid;text-indent:0;text-orientation:mixed;text-transform:none;white-space:normal"/>
  </g>
  <g id="down-arrow" transform="matrix(1 0 0 -1 12.741 2187.8)">
   <rect id="rect823" x="14.104" y="1086.7" width="16" height="16" fill="none"/>
   <path id="qqb" class="ColorScheme-Text" d="m22.103 1091.9-0.94435 0.9444h0.0014l-3.6225 3.6224 0.94435 0.9444 3.6225-3.6225 3.6225 3.6225 0.94435-0.9444-3.6225-3.6224h0.0014l-0.94435-0.9444h-0.0013z" color-rendering="auto" dominant-baseline="auto" fill="#cadce0" image-rendering="auto" shape-rendering="auto" solid-color="#cadce0" style="font-feature-settings:normal;font-variant-alternates:normal;font-variant-caps:normal;font-variant-ligatures:normal;font-variant-numeric:normal;font-variant-position:normal;isolation:auto;mix-blend-mode:normal;shape-padding:0;text-decoration-color:#cadce0;text-decoration-line:none;text-decoration-style:solid;text-indent:0;text-orientation:mixed;text-transform:none;white-space:normal"/>
  </g>
  <g id="left-arrow" transform="rotate(-90 27.693 1103.5)">
   <rect id="rect1391" x="14.104" y="1086.7" width="16" height="16" fill="none"/>
   <path id="qqc" class="ColorScheme-Text" d="m22.103 1091.9-0.94435 0.9444h0.0014l-3.6225 3.6224 0.94435 0.9444 3.6225-3.6225 3.6225 3.6225 0.94435-0.9444-3.6225-3.6224h0.0014l-0.94435-0.9444h-0.0013z" color-rendering="auto" dominant-baseline="auto" fill="#cadce0" image-rendering="auto" shape-rendering="auto" solid-color="#cadce0" style="font-feature-settings:normal;font-variant-alternates:normal;font-variant-caps:normal;font-variant-ligatures:normal;font-variant-numeric:normal;font-variant-position:normal;isolation:auto;mix-blend-mode:normal;shape-padding:0;text-decoration-color:#cadce0;text-decoration-line:none;text-decoration-style:solid;text-indent:0;text-orientation:mixed;text-transform:none;white-space:normal"/>
  </g>
  <g id="right-arrow" transform="rotate(90 21.256 1108.3)">
   <rect id="rect1397" x="14.104" y="1086.7" width="16" height="16" fill="none"/>
   <path id="qqd" class="ColorScheme-Text" d="m22.103 1091.9-0.94435 0.9444h0.0014l-3.6225 3.6224 0.94435 0.9444 3.6225-3.6225 3.6225 3.6225 0.94435-0.9444-3.6225-3.6224h0.0014l-0.94435-0.9444h-0.0013z" color-rendering="auto" dominant-baseline="auto" fill="#cadce0" image-rendering="auto" shape-rendering="auto" solid-color="#cadce0" style="font-feature-settings:normal;font-variant-alternates:normal;font-variant-caps:normal;font-variant-ligatures:normal;font-variant-numeric:normal;font-variant-position:normal;isolation:auto;mix-blend-mode:normal;shape-padding:0;text-decoration-color:#cadce0;text-decoration-line:none;text-decoration-style:solid;text-indent:0;text-orientation:mixed;text-transform:none;white-space:normal"/>
  </g>
 </g>
</svg>
