<?xml version="1.0" encoding="UTF-8"?>
<!-- Created with Inkscape (http://www.inkscape.org/) -->
<svg id="svg8" width="114.16" height="54" version="1.1" viewBox="0 0 114.16 54" xmlns="http://www.w3.org/2000/svg" xmlns:cc="http://creativecommons.org/ns#" xmlns:dc="http://purl.org/dc/elements/1.1/" xmlns:osb="http://www.openswatchbook.org/uri/2009/osb" xmlns:rdf="http://www.w3.org/1999/02/22-rdf-syntax-ns#" xmlns:xlink="http://www.w3.org/1999/xlink">
 <defs id="defs2">
  <linearGradient id="light" osb:paint="solid">
   <stop id="stop945" stop-color="#6f97a0" offset="0"/>
  </linearGradient>
  <linearGradient id="linearGradient915" x1="1063.1" x2="1069.5" y1="-88.268" y2="-88.268" gradientTransform="rotate(180 596.4 -30.287)" gradientUnits="userSpaceOnUse" xlink:href="#linearGradient884"/>
  <linearGradient id="linearGradient884">
   <stop id="stop880" stop-opacity="0" offset="0"/>
   <stop id="stop882" stop-opacity=".64463" offset="1"/>
  </linearGradient>
  <radialGradient id="radialGradient878" cx="103.27" cy="1070.1" r="7" gradientTransform="matrix(.85714 0 0 .85714 20.185 141.89)" gradientUnits="userSpaceOnUse" xlink:href="#linearGradient876"/>
  <linearGradient id="linearGradient876">
   <stop id="stop872" stop-opacity=".64463" offset="0"/>
   <stop id="stop874" stop-opacity="0" offset="1"/>
  </linearGradient>
  <linearGradient id="linearGradient936" x1="1063.1" x2="1069.5" y1="-88.268" y2="-88.268" gradientTransform="matrix(0 1 -.5 0 65.866 -11.116)" gradientUnits="userSpaceOnUse" xlink:href="#linearGradient884"/>
  <linearGradient id="linearGradient950" x1="14.732" x2="30.732" y1="1056.8" y2="1056.8" gradientTransform="matrix(1 0 0 .5 -.26786 527.57)" gradientUnits="userSpaceOnUse" xlink:href="#light"/>
  <linearGradient id="linearGradient974" x1="7.4107" x2="15.411" y1="-1068.7" y2="-1068.7" gradientTransform="matrix(-.875 0 0 -.875 2.2427 129.15)" gradientUnits="userSpaceOnUse" xlink:href="#light"/>
 </defs>
 <metadata id="metadata5">
  <rdf:RDF>
   <cc:Work rdf:about="">
    <dc:format>image/svg+xml</dc:format>
    <dc:type rdf:resource="http://purl.org/dc/dcmitype/StillImage"/>
    <dc:title/>
   </cc:Work>
  </rdf:RDF>
 </metadata>
 <g id="layer1" transform="translate(-1.1071 -1058.1)">
  <g id="bottom" transform="rotate(180 22.286 1077.8)" fill-rule="evenodd">
   <rect id="rect1000" transform="rotate(90)" x="1054.5" y="-30.464" width="8" height="16" fill="#35535b"/>
   <rect id="rect1002" x="14.464" y="1055.5" width="16" height="1" fill="url(#linearGradient950)"/>
  </g>
  <g id="right" transform="matrix(0 -1 -1 0 1092.6 1107.5)" fill-rule="evenodd">
   <rect id="rect992" transform="rotate(90)" x="1054.5" y="-30.464" width="8" height="16" fill="#35535b"/>
   <rect id="rect994" x="14.464" y="1055.5" width="16" height="1" fill="url(#linearGradient950)"/>
  </g>
  <g id="left" transform="rotate(-90 29.567 1078)" fill-rule="evenodd">
   <rect id="rect961" transform="rotate(90)" x="1054.5" y="-30.464" width="8" height="16" fill="#35535b"/>
   <rect id="rect963" x="14.464" y="1055.5" width="16" height="1" fill="url(#linearGradient950)"/>
  </g>
  <g id="topleft" transform="translate(18.348 9.2856)">
   <g id="g966" transform="rotate(180 12.27 1083.4)">
    <rect id="rect964" x="28.781" y="1099.1" width="8" height="8" fill="#35535b" fill-rule="evenodd"/>
   </g>
   <path id="rect965" d="m-11.241 1060.8v7h1v-6h6v-1z" fill="url(#linearGradient974)" fill-rule="evenodd"/>
  </g>
  <g id="top" transform="translate(-.35714 14.562)" fill-rule="evenodd">
   <rect id="rect1678" transform="rotate(90)" x="1054.5" y="-30.464" width="8" height="16" fill="#35535b"/>
   <rect id="rect868" x="14.464" y="1055.5" width="16" height="1" fill="url(#linearGradient950)"/>
  </g>
  <rect id="center" x="14.107" y="1077.1" width="16" height="16" fill="#35535b" fill-rule="evenodd"/>
  <rect id="hint-right-margin" x="30.107" y="1077.1" width="8" height="2" fill="#927f53" fill-rule="evenodd"/>
  <rect id="hint-left-margin" x="6.1071" y="1091.1" width="8" height="2" fill="#927f53" fill-rule="evenodd"/>
  <rect id="hint-bottom-margin" transform="rotate(90)" x="1093.1" y="-30.107" width="8" height="2" fill="#927f53" fill-rule="evenodd"/>
  <rect id="hint-top-margin" transform="rotate(90)" x="1069.1" y="-16.107" width="8" height="2" fill="#927f53" fill-rule="evenodd"/>
  <g id="g946" transform="translate(-.68224 2.5e-5)">
   <g id="shadow-bottom" transform="rotate(90 98.906 1075.1)">
    <rect id="rect909" x="116.85" y="1077.8" width="14" height="16" fill="none"/>
    <path id="path911" transform="translate(1.1071 1058.1)" d="m123.74 19.695v16h6v-16z" fill="url(#linearGradient915)" fill-rule="evenodd"/>
   </g>
   <g id="shadow-top" transform="rotate(-90 98.211 1095.7)">
    <rect id="rect900" x="116.85" y="1077.8" width="14" height="16" fill="none"/>
    <path id="path902" transform="translate(1.1071 1058.1)" d="m123.74 19.695v16h6v-16z" fill="url(#linearGradient915)" fill-rule="evenodd"/>
   </g>
   <g id="shadow-left" transform="matrix(-1 0 0 1 197.12 -.6953)">
    <rect id="rect892" x="116.85" y="1077.8" width="14" height="16" fill="none"/>
    <path id="path894" transform="translate(1.1071 1058.1)" d="m123.74 19.695v16h6v-16z" fill="url(#linearGradient915)" fill-rule="evenodd"/>
   </g>
   <g id="shadow-right" transform="translate(-20.581 -.69535)">
    <rect id="rect895" x="116.85" y="1077.8" width="14" height="16" fill="none"/>
    <path id="rect929" transform="translate(1.1071 1058.1)" d="m123.74 19.695v16h6v-16z" fill="url(#linearGradient915)" fill-rule="evenodd"/>
   </g>
   <rect id="shadow-center" x="80.268" y="1077.1" width="16" height="16" fill="none" opacity=".2"/>
   <rect id="shadow-hint-top-margin" transform="rotate(90)" x="1063.1" y="-82.268" width="6" height="2" fill="#fdfcfb" fill-rule="evenodd"/>
   <rect id="shadow-hint-left-margin" x="66.268" y="1091.1" width="6" height="2" fill="#fff" fill-rule="evenodd"/>
   <rect id="shadow-hint-right-margin" x="104.27" y="1077.1" width="6" height="2" fill="#fff" fill-rule="evenodd"/>
   <rect id="shadow-hint-bottom-margin" transform="rotate(90)" x="1101.1" y="-96.268" width="6" height="2" fill="#fff" fill-rule="evenodd"/>
   <g id="shadow-topright" transform="translate(-9.7321 11.116)">
    <g id="g954" transform="translate(5.2989 -1.1402)">
     <path id="path919" d="m108.7 1053.1v6h6v-6z" fill="url(#radialGradient878)" fill-rule="evenodd"/>
     <g id="g922" transform="matrix(1 0 0 .5 -16.148 520.2)">
      <rect id="rect917" x="116.85" y="1077.8" width="14" height="16" fill="none"/>
      <path id="path920" transform="translate(1.1071 1058.1)" d="m123.74 19.695v16h6v-16z" fill="url(#linearGradient915)" fill-rule="evenodd"/>
     </g>
    </g>
    <path id="path932" d="m106 1057.9h8v-6h-8z" fill="url(#linearGradient936)" fill-rule="evenodd"/>
   </g>
   <g id="shadow-topleft" transform="matrix(-1 0 0 1 186.27 11.116)">
    <g id="g904" transform="translate(5.2989 -1.1402)">
     <path id="path896" d="m108.7 1053.1v6h6v-6z" fill="url(#radialGradient878)" fill-rule="evenodd"/>
     <g id="g902" transform="matrix(1 0 0 .5 -16.148 520.2)">
      <rect id="rect898" x="116.85" y="1077.8" width="14" height="16" fill="none"/>
      <path id="path900" transform="translate(1.1071 1058.1)" d="m123.74 19.695v16h6v-16z" fill="url(#linearGradient915)" fill-rule="evenodd"/>
     </g>
    </g>
    <path id="path906" d="m106 1057.9h8v-6h-8z" fill="url(#linearGradient936)" fill-rule="evenodd"/>
   </g>
   <g id="shadow-bottomright" transform="matrix(1 0 0 -1 -9.7322 2159)">
    <g id="g925" transform="translate(5.2989 -1.1402)">
     <path id="path916" d="m108.7 1053.1v6h6v-6z" fill="url(#radialGradient878)" fill-rule="evenodd"/>
     <g id="g923" transform="matrix(1 0 0 .5 -16.148 520.2)">
      <rect id="rect918" x="116.85" y="1077.8" width="14" height="16" fill="none"/>
      <path id="path921" transform="translate(1.1071 1058.1)" d="m123.74 19.695v16h6v-16z" fill="url(#linearGradient915)" fill-rule="evenodd"/>
     </g>
    </g>
    <path id="path927" d="m106 1057.9h8v-6h-8z" fill="url(#linearGradient936)" fill-rule="evenodd"/>
   </g>
   <g id="shadow-bottomleft" transform="rotate(180 93.134 1079.5)">
    <g id="g945" transform="translate(5.2989 -1.1402)">
     <path id="path937" d="m108.7 1053.1v6h6v-6z" fill="url(#radialGradient878)" fill-rule="evenodd"/>
     <g id="g943" transform="matrix(1 0 0 .5 -16.148 520.2)">
      <rect id="rect939" x="116.85" y="1077.8" width="14" height="16" fill="none"/>
      <path id="path941" transform="translate(1.1071 1058.1)" d="m123.74 19.695v16h6v-16z" fill="url(#linearGradient915)" fill-rule="evenodd"/>
     </g>
    </g>
    <path id="path947" d="m106 1057.9h8v-6h-8z" fill="url(#linearGradient936)" fill-rule="evenodd"/>
   </g>
  </g>
  <rect id="pressed-center" x="-38.501" y="1077.8" width="8" height="8" fill="#1f444d" fill-rule="evenodd"/>
  <rect id="rect881" transform="scale(1,-1)" x="-38.501" y="-1093.8" width="8" height="8" fill="#1f444d" fill-rule="evenodd"/>
  <g id="pressed-left" transform="translate(-48.596 6.3536)" fill-rule="evenodd">
   <rect id="rect888" x="2.0949" y="1071.4" width="8" height="8" fill="#1f444d"/>
   <rect id="rect882" transform="rotate(90)" x="1071.4" y="-3.0949" width="8" height="1" fill="#1b3b42"/>
  </g>
  <g id="pressed-topleft" transform="translate(-49.221 8.8535)" fill-rule="evenodd">
   <rect id="rect891" x="2.7199" y="1060.9" width="8" height="8" fill="#1f444d"/>
   <rect id="rect872" x="2.7199" y="1060.9" width="8" height="1" fill="#1b3b42"/>
   <rect id="rect890" transform="rotate(90)" x="1061.9" y="-3.7199" width="7" height="1" fill="#1b3b42"/>
  </g>
  <g id="pressed-bottomleft" transform="translate(-51.453 5.1482)" fill-rule="evenodd">
   <rect id="rect875" transform="scale(1,-1)" x="4.952" y="-1088.6" width="8" height="8" fill="#1f444d"/>
   <rect id="rect877" transform="scale(1,-1)" x="4.952" y="-1088.6" width="8" height="1" fill="#316b77"/>
   <rect id="rect899" transform="rotate(90)" x="1080.6" y="-5.952" width="7" height="1" fill="#1b3b42"/>
  </g>
  <g id="pressed-right" transform="translate(-67.881 6.1304)" fill-rule="evenodd">
   <rect id="rect914" x="37.381" y="1071.6" width="8" height="8" fill="#1f444d"/>
   <rect id="rect908" transform="rotate(90)" x="1071.6" y="-45.381" width="8" height="1" fill="#316b77"/>
  </g>
  <g id="pressed-topright" transform="translate(-59.98 12.559)" fill-rule="evenodd">
   <rect id="rect893" x="29.479" y="1057.2" width="8" height="8" fill="#1f444d"/>
   <rect id="rect895-2" x="29.479" y="1057.2" width="8" height="1" fill="#1b3b42"/>
   <rect id="rect918-3" transform="rotate(90)" x="1058.2" y="-37.479" width="7" height="1" fill="#316b77"/>
  </g>
  <g id="pressed-bottomright" transform="translate(-65.569 6.5768)" fill-rule="evenodd">
   <rect id="rect887" transform="scale(1,-1)" x="35.068" y="-1087.2" width="8" height="8" fill="#1f444d"/>
   <rect id="rect889" transform="scale(1,-1)" x="35.068" y="-1087.2" width="8" height="1" fill="#316b77"/>
   <rect id="rect878" transform="rotate(90)" x="1079.2" y="-43.068" width="7" height="1" fill="#316b77"/>
  </g>
  <rect id="pressed-hint-left-margin" transform="rotate(90)" x="1084.8" y="38.501" width="1" height="6" fill="#fff" fill-rule="evenodd"/>
  <rect id="pressed-hint-bottom-margin" x="-31.501" y="1085.8" width="1" height="6" fill="#fff" fill-rule="evenodd"/>
  <rect id="pressed-hint-right-margin" transform="rotate(90)" x="1077.8" y="24.501" width="1" height="6" fill="#fff" fill-rule="evenodd"/>
  <rect id="pressed-hint-top-margin" x="-38.501" y="1071.8" width="1" height="6" fill="#fff" fill-rule="evenodd"/>
  <g id="topright" transform="matrix(-1 0 0 1 25.866 9.2856)">
   <g id="g984" transform="rotate(180 12.27 1083.4)">
    <rect id="rect982" x="28.781" y="1099.1" width="8" height="8" fill="#35535b" fill-rule="evenodd"/>
   </g>
   <path id="path986" d="m-11.241 1060.8v7h1v-6h6v-1z" fill="url(#linearGradient974)" fill-rule="evenodd"/>
  </g>
  <g id="bottomleft" transform="matrix(1 0 0 -1 18.348 2160.8)">
   <g id="g1010" transform="rotate(180 12.27 1083.4)">
    <rect id="rect1008" x="28.781" y="1099.1" width="8" height="8" fill="#35535b" fill-rule="evenodd"/>
   </g>
   <path id="path1012" d="m-11.241 1060.8v7h1v-6h6v-1z" fill="url(#linearGradient974)" fill-rule="evenodd"/>
  </g>
  <g id="bottomright" transform="rotate(180 12.933 1080.4)">
   <g id="g1020" transform="rotate(180 12.27 1083.4)">
    <rect id="rect1018" x="28.781" y="1099.1" width="8" height="8" fill="#35535b" fill-rule="evenodd"/>
   </g>
   <path id="path1022" d="m-11.241 1060.8v7h1v-6h6v-1z" fill="url(#linearGradient974)" fill-rule="evenodd"/>
  </g>
 </g>
</svg>
