<?xml version="1.0" encoding="UTF-8"?>
<!-- Created with Inkscape (http://www.inkscape.org/) -->
<svg id="svg843" width="32" height="32" version="1.1" viewBox="0 0 32 32" xmlns="http://www.w3.org/2000/svg" xmlns:cc="http://creativecommons.org/ns#" xmlns:dc="http://purl.org/dc/elements/1.1/" xmlns:rdf="http://www.w3.org/1999/02/22-rdf-syntax-ns#">
 <metadata id="metadata840">
  <rdf:RDF>
   <cc:Work rdf:about="">
    <dc:format>image/svg+xml</dc:format>
    <dc:type rdf:resource="http://purl.org/dc/dcmitype/StillImage"/>
    <dc:title/>
   </cc:Work>
  </rdf:RDF>
 </metadata>
 <g id="layer1" transform="translate(0 -1090.5)">
  <rect id="bar-active-right" x="28.161" y="1104.4" width="4" height="4" fill="#296a7a" fill-rule="evenodd"/>
  <rect id="bar-active-center" x="24.161" y="1104.4" width="4" height="4" fill="#296a7a" fill-rule="evenodd"/>
  <rect id="bar-active-left" x="20.161" y="1104.4" width="4" height="4" fill="#296a7a" fill-rule="evenodd"/>
  <g id="bar-active-bottom" transform="matrix(1 0 0 -1 17.602 2184.8)">
   <rect id="rect953" x="6.5586" y="1072.4" width="4" height="4" fill="none"/>
   <rect id="rect955" x="6.5586" y="1074.4" width="4" height="2" fill="#296a7a" fill-rule="evenodd"/>
  </g>
  <g id="bar-active-bottomright" transform="matrix(1 0 0 -1 21.602 2184.8)">
   <rect id="rect959" x="6.5586" y="1072.4" width="4" height="4" fill="none"/>
   <rect id="rect961" x="6.5586" y="1074.4" width="4" height="2" fill="#296a7a" fill-rule="evenodd"/>
  </g>
  <g id="bar-active-bottomleft" transform="matrix(1 0 0 -1 13.602 2184.8)">
   <rect id="rect965" x="6.5586" y="1072.4" width="4" height="4" fill="none"/>
   <rect id="rect967" x="6.5586" y="1074.4" width="4" height="2" fill="#296a7a" fill-rule="evenodd"/>
  </g>
  <g id="bar-active-topleft" transform="translate(.21553 21.477)">
   <rect id="rect941" x="19.945" y="1078.9" width="4" height="4" fill="none"/>
   <rect id="rect943" x="19.945" y="1080.9" width="4" height="2" fill="#296a7a" fill-rule="evenodd"/>
   <rect id="rect866" x="19.945" y="1080.9" width="4" height="1" fill="#2e7789" fill-rule="evenodd"/>
  </g>
  <g id="bar-active-top" transform="translate(4.2155 21.477)">
   <rect id="rect873" x="19.945" y="1078.9" width="4" height="4" fill="none"/>
   <rect id="rect875" x="19.945" y="1080.9" width="4" height="2" fill="#296a7a" fill-rule="evenodd"/>
   <rect id="rect877" x="19.945" y="1080.9" width="4" height="1" fill="#2e7789" fill-rule="evenodd"/>
  </g>
  <g id="bar-active-topright" transform="translate(8.2155 21.477)">
   <rect id="rect881" x="19.945" y="1078.9" width="4" height="4" fill="none"/>
   <rect id="rect883" x="19.945" y="1080.9" width="4" height="2" fill="#296a7a" fill-rule="evenodd"/>
   <rect id="rect885" x="19.945" y="1080.9" width="4" height="1" fill="#2e7789" fill-rule="evenodd"/>
  </g>
  <rect id="bar-inactive-right" x="9.5893" y="1103.9" width="4" height="4" fill="#182629" fill-rule="evenodd"/>
  <rect id="bar-inactive-center" x="5.5893" y="1103.9" width="4" height="4" fill="#182629" fill-rule="evenodd"/>
  <rect id="bar-inactive-left" x="1.5893" y="1103.9" width="4" height="4" fill="#182629" fill-rule="evenodd"/>
  <g id="bar-inactive-top" transform="translate(-.96936 27.485)">
   <rect id="rect863" x="6.5586" y="1072.4" width="4" height="4" fill="none"/>
   <rect id="rect838" x="6.5586" y="1074.4" width="4" height="2" fill="#182629" fill-rule="evenodd"/>
  </g>
  <g id="bar-inactive-topleft" transform="translate(-4.9694 27.485)">
   <rect id="rect844" x="6.5586" y="1072.4" width="4" height="4" fill="none"/>
   <rect id="rect846" x="6.5586" y="1074.4" width="4" height="2" fill="#182629" fill-rule="evenodd"/>
  </g>
  <g id="bar-inactive-topright" transform="translate(3.0306 27.485)">
   <rect id="rect850" x="6.5586" y="1072.4" width="4" height="4" fill="none"/>
   <rect id="rect852" x="6.5586" y="1074.4" width="4" height="2" fill="#182629" fill-rule="evenodd"/>
  </g>
  <g id="bar-inactive-bottomleft" transform="translate(-.20857 13.441)">
   <rect id="rect868" transform="scale(1,-1)" x="1.7979" y="-1098.5" width="4" height="4" fill="none"/>
   <rect id="rect870" transform="scale(1,-1)" x="1.7979" y="-1096.5" width="4" height="2" fill="#182629" fill-rule="evenodd"/>
   <rect id="rect1468" transform="scale(1,-1)" x="1.7979" y="-1096.5" width="4" height="1" fill="#232f35" fill-rule="evenodd"/>
  </g>
  <g id="bar-inactive-bottom" transform="translate(3.7914 13.441)">
   <rect id="rect1475" transform="scale(1,-1)" x="1.7979" y="-1098.5" width="4" height="4" fill="none"/>
   <rect id="rect1477" transform="scale(1,-1)" x="1.7979" y="-1096.5" width="4" height="2" fill="#182629" fill-rule="evenodd"/>
   <rect id="rect1479" transform="scale(1,-1)" x="1.7979" y="-1096.5" width="4" height="1" fill="#232f35" fill-rule="evenodd"/>
  </g>
  <g id="bar-inactive-bottomright" transform="translate(7.7914 13.441)">
   <rect id="rect1483" transform="scale(1,-1)" x="1.7979" y="-1098.5" width="4" height="4" fill="none"/>
   <rect id="rect1485" transform="scale(1,-1)" x="1.7979" y="-1096.5" width="4" height="2" fill="#182629" fill-rule="evenodd"/>
   <rect id="rect1487" transform="scale(1,-1)" x="1.7979" y="-1096.5" width="4" height="1" fill="#232f35" fill-rule="evenodd"/>
  </g>
  <rect id="rect2213" x="4.1071" y="1079.1" width="6" height="6" fill="#9e8c62" fill-rule="evenodd"/>
 </g>
</svg>
