<?xml version="1.0" encoding="UTF-8"?>
<!-- Created with Inkscape (http://www.inkscape.org/) -->
<svg id="svg1083" width="126.08" height="40" version="1.1" viewBox="0 0 126.08 40" xmlns="http://www.w3.org/2000/svg" xmlns:cc="http://creativecommons.org/ns#" xmlns:dc="http://purl.org/dc/elements/1.1/" xmlns:rdf="http://www.w3.org/1999/02/22-rdf-syntax-ns#">
 <metadata id="metadata1080">
  <rdf:RDF>
   <cc:Work rdf:about="">
    <dc:format>image/svg+xml</dc:format>
    <dc:type rdf:resource="http://purl.org/dc/dcmitype/StillImage"/>
    <dc:title/>
   </cc:Work>
  </rdf:RDF>
 </metadata>
 <g id="layer1" transform="translate(-2.9788 -1001.2)" fill-rule="evenodd">
  <g id="g916" transform="translate(-8.4786 -.53568)">
   <rect id="hover-center" x="70.497" y="1017.7" width="8" height="8" fill="#dcebee" fill-opacity=".43842"/>
   <rect id="hover-topleft" x="62.497" y="1009.7" width="8" height="8" fill="#dcebee" fill-opacity=".43842"/>
   <rect id="hover-top" x="70.497" y="1009.7" width="8" height="8" fill="#dcebee" fill-opacity=".43842"/>
   <rect id="hover-topright" x="78.497" y="1009.7" width="8" height="8" fill="#dcebee" fill-opacity=".43842"/>
   <rect id="hover-left" x="62.497" y="1017.7" width="8" height="8" fill="#dcebee" fill-opacity=".43842"/>
   <rect id="hover-right" x="78.497" y="1017.7" width="8" height="8" fill="#dcebee" fill-opacity=".43842"/>
   <rect id="hover-bottomleft" x="62.497" y="1025.7" width="8" height="8" fill="#dcebee" fill-opacity=".43842"/>
   <rect id="hover-bottom" x="70.497" y="1025.7" width="8" height="8" fill="#dcebee" fill-opacity=".43842"/>
   <rect id="hover-bottomright" x="78.497" y="1025.7" width="8" height="8" fill="#dcebee" fill-opacity=".43842"/>
   <rect id="hover-hint-top-margin" x="70.497" y="1016.7" width="1" height="1" fill="#fff"/>
   <rect id="hover-hint-bottom-margin" x="77.497" y="1025.7" width="1" height="1" fill="#fff"/>
   <rect id="hover-hint-left-margin" transform="rotate(90)" x="1024.7" y="-70.497" width="1" height="1" fill="#fff"/>
   <rect id="hover-hint-right-margin" transform="rotate(90)" x="1017.7" y="-79.497" width="1" height="1" fill="#fff"/>
  </g>
  <g id="g951" transform="translate(85.989 -54.018)">
   <rect id="pressed-center" x="19.068" y="1071.2" width="8" height="8" fill="#1f444d"/>
   <g id="pressed-top" transform="translate(2.7593e-6)">
    <rect id="rect874" x="19.068" y="1063.2" width="8" height="8" fill="#1f444d"/>
    <rect id="rect868" x="19.068" y="1063.2" width="8" height="1" fill="#1b3b42"/>
   </g>
   <g id="pressed-bottom" transform="matrix(1 0 0 -1 10.841 2148.5)">
    <rect id="rect881" x="8.227" y="1061.3" width="8" height="8" fill="#1f444d"/>
    <rect id="rect883" x="8.227" y="1061.3" width="8" height="1" fill="#2c616c"/>
   </g>
   <g id="pressed-left" transform="translate(8.9732 -.22318)">
    <rect id="rect888" x="2.0949" y="1071.4" width="8" height="8" fill="#1f444d"/>
    <rect id="rect882" transform="rotate(90)" x="1071.4" y="-3.0949" width="8" height="1" fill="#1b3b42"/>
   </g>
   <g id="pressed-topleft" transform="translate(8.3482 2.2767)">
    <rect id="rect891" x="2.7199" y="1060.9" width="8" height="8" fill="#1f444d"/>
    <rect id="rect872" x="2.7199" y="1060.9" width="8" height="1" fill="#1b3b42"/>
    <rect id="rect890" transform="rotate(90)" x="1061.9" y="-3.7199" width="7" height="1" fill="#1b3b42"/>
   </g>
   <g id="pressed-bottomleft" transform="translate(6.1161 -1.4286)">
    <rect id="rect875" transform="scale(1,-1)" x="4.952" y="-1088.6" width="8" height="8" fill="#1f444d"/>
    <rect id="rect877" transform="scale(1,-1)" x="4.952" y="-1088.6" width="8" height="1" fill="#2c616c"/>
    <rect id="rect899" transform="rotate(90)" x="1080.6" y="-5.952" width="7" height="1" fill="#1b3b42"/>
   </g>
   <g id="pressed-right" transform="translate(-10.312 -.44641)">
    <rect id="rect914" x="37.381" y="1071.6" width="8" height="8" fill="#1f444d"/>
    <rect id="rect908" transform="rotate(90)" x="1071.6" y="-45.381" width="8" height="1" fill="#2c616c"/>
   </g>
   <g id="pressed-topright" transform="translate(-2.4107 5.9822)">
    <rect id="rect893" x="29.479" y="1057.2" width="8" height="8" fill="#1f444d"/>
    <rect id="rect895" x="29.479" y="1057.2" width="8" height="1" fill="#1b3b42"/>
    <rect id="rect918" transform="rotate(90)" x="1058.2" y="-37.479" width="7" height="1" fill="#2c616c"/>
   </g>
   <g id="pressed-bottomright" transform="translate(-8)">
    <rect id="rect887" transform="scale(1,-1)" x="35.068" y="-1087.2" width="8" height="8" fill="#1f444d"/>
    <rect id="rect889" transform="scale(1,-1)" x="35.068" y="-1087.2" width="8" height="1" fill="#2c616c"/>
    <rect id="rect878" transform="rotate(90)" x="1079.2" y="-43.068" width="7" height="1" fill="#2c616c"/>
   </g>
   <rect id="pressed-hint-left-margin" transform="rotate(90)" x="1078.2" y="-19.068" width="1" height="6" fill="#fff"/>
   <rect id="pressed-hint-bottom-margin" x="26.068" y="1079.2" width="1" height="6" fill="#fff"/>
   <rect id="pressed-hint-right-margin" transform="rotate(90)" x="1071.2" y="-33.068" width="1" height="6" fill="#fff"/>
   <rect id="pressed-hint-top-margin" x="19.068" y="1065.2" width="1" height="6" fill="#fff"/>
  </g>
  <rect id="normal-center" x="18.979" y="1017.2" width="8" height="8" fill="#dcebee" fill-opacity=".39409"/>
  <rect id="normal-left" x="10.979" y="1017.2" width="8" height="8" fill="#dcebee" fill-opacity=".39409"/>
  <rect id="normal-right" x="26.979" y="1017.2" width="8" height="8" fill="#dcebee" fill-opacity=".39409"/>
  <rect id="normal-bottomleft" x="10.979" y="1025.2" width="8" height="8" fill="#dcebee" fill-opacity=".39409"/>
  <rect id="normal-bottom" x="18.979" y="1025.2" width="8" height="8" fill="#dcebee" fill-opacity=".39409"/>
  <rect id="normal-bottomright" x="26.979" y="1025.2" width="8" height="8" fill="#dcebee" fill-opacity=".39409"/>
  <rect id="normal-hint-bottom-margin" x="26.979" y="1025.2" width="1" height="6" fill="#fff"/>
  <rect id="normal-hint-right-margin" transform="rotate(90)" x="1017.2" y="-32.979" width="1" height="6" fill="#fff"/>
  <rect id="normal-hint-left-margin" transform="rotate(90)" x="1024.2" y="-16.979" width="1" height="6" fill="#fff"/>
  <g id="normal-top" transform="translate(19.875 -.66962)" fill="#dcebee">
   <rect id="rect1582" x="-.89621" y="1009.8" width="8" height="8" fill-opacity=".39409"/>
   <rect id="rect1584" x="-.89621" y="1009.8" width="8" height="1" fill-opacity=".21675"/>
  </g>
  <rect id="normal-hint-top-margin" x="18.979" y="1011.2" width="1" height="6" fill="#fff"/>
  <g id="normal-topleft" transform="translate(11.875 -.66962)" fill="#dcebee">
   <rect id="rect1580" x="-.89621" y="1009.8" width="8" height="8" fill-opacity=".39409"/>
   <rect id="rect1574" x="-.89621" y="1009.8" width="8" height="1" fill-opacity=".21675"/>
  </g>
  <g id="normal-topright" transform="translate(27.875 -.66962)" fill="#dcebee">
   <rect id="rect1588" x="-.89621" y="1009.8" width="8" height="8" fill-opacity=".39409"/>
   <rect id="rect1590" x="-.89621" y="1009.8" width="8" height="1" fill-opacity=".21675"/>
  </g>
 </g>
</svg>
