<?xml version="1.0" encoding="UTF-8"?>
<!-- Created with Inkscape (http://www.inkscape.org/) -->
<svg id="svg837" width="48" height="48" version="1.1" viewBox="0 0 48 48" xmlns="http://www.w3.org/2000/svg" xmlns:cc="http://creativecommons.org/ns#" xmlns:dc="http://purl.org/dc/elements/1.1/" xmlns:rdf="http://www.w3.org/1999/02/22-rdf-syntax-ns#">
 <metadata id="metadata834">
  <rdf:RDF>
   <cc:Work rdf:about="">
    <dc:format>image/svg+xml</dc:format>
    <dc:type rdf:resource="http://purl.org/dc/dcmitype/StillImage"/>
    <dc:title/>
   </cc:Work>
  </rdf:RDF>
 </metadata>
 <g id="layer1" transform="translate(0 -1074.5)">
  <path id="path1414" d="m20.576 1094.7c-0.35036-0.01-0.676 0.1799-0.84961 0.4843-6.1363 9.9235-4.1152 10.718-10.436 6.4942-1.0902-0.7208-2.1445 0.948-1.0254 1.623 8.0104 5.458 5.6615 5.2147 13.113-7.1426 0.38514-0.6331-0.06179-1.4454-0.80273-1.4589z" color="#000000" color-rendering="auto" dominant-baseline="auto" fill="#dcebee" image-rendering="auto" shape-rendering="auto" solid-color="#000000" style="font-feature-settings:normal;font-variant-alternates:normal;font-variant-caps:normal;font-variant-ligatures:normal;font-variant-numeric:normal;font-variant-position:normal;isolation:auto;mix-blend-mode:normal;shape-padding:0;text-decoration-color:#000000;text-decoration-line:none;text-decoration-style:solid;text-indent:0;text-orientation:mixed;text-transform:none;white-space:normal"/>
  <g id="checkbox">
   <rect id="rect1385" x="25.643" y="1092.1" width="16" height="16" fill="#1f444d" fill-rule="evenodd"/>
   <rect id="rect2145" x="25.643" y="1092.1" width="16" height="1" fill="#1b3b42" fill-rule="evenodd"/>
   <path id="path1424" d="m28.404 1101.4 4.4337 3.01 6.0608-9.2335" fill="none" stroke="#dcebee" stroke-width="1.8223"/>
   <rect id="rect2781" transform="rotate(90)" x="1093.1" y="-26.643" width="14" height="1" fill="#1b3b42" fill-rule="evenodd"/>
   <rect id="rect2783" transform="rotate(90)" x="1093.1" y="-41.643" width="14" height="1" fill="#2c616c" fill-rule="evenodd"/>
   <rect id="rect2785" x="25.643" y="1107.1" width="16" height="1" fill="#2c616c" fill-rule="evenodd"/>
  </g>
 </g>
</svg>
