<?xml version="1.0" encoding="UTF-8"?>
<!-- Created with Inkscape (http://www.inkscape.org/) -->
<svg id="svg914" width="128" height="64" version="1.1" viewBox="0 0 128 64" xmlns="http://www.w3.org/2000/svg" xmlns:cc="http://creativecommons.org/ns#" xmlns:dc="http://purl.org/dc/elements/1.1/" xmlns:osb="http://www.openswatchbook.org/uri/2009/osb" xmlns:rdf="http://www.w3.org/1999/02/22-rdf-syntax-ns#">
 <metadata id="metadata911">
  <rdf:RDF>
   <cc:Work rdf:about="">
    <dc:format>image/svg+xml</dc:format>
    <dc:type rdf:resource="http://purl.org/dc/dcmitype/StillImage"/>
    <dc:title/>
   </cc:Work>
  </rdf:RDF>
 </metadata>
 <g id="layer1" transform="translate(0 -1058.5)">
  <path id="path1482" d="m-23.1 1045.1h-7.5l-3.75-6.4952 3.75-6.4952h7.5l3.75 6.4952z" fill="#dcebee" fill-rule="evenodd"/>
  <g id="configure" transform="translate(-5.489 -9.1472)">
   <rect id="rect1502" x="12.627" y="1072.4" width="16" height="16" fill="none"/>
   <path id="path2090" transform="translate(0 1058.5)" d="m16.877 15.412-3.75 6.4941 3.75 6.4961h7.5l3.75-6.4961-3.75-6.4941zm3.75 4.1211a2.3732 2.3732 0 0 1 2.373 2.373 2.3732 2.3732 0 0 1-2.373 2.375 2.3732 2.3732 0 0 1-2.373-2.375 2.3732 2.3732 0 0 1 2.373-2.373z" fill="#dcebee" fill-rule="evenodd" stroke="#18282d" stroke-linecap="round" stroke-linejoin="bevel" stroke-width=".48"/>
  </g>
  <rect id="rect2209" x="-39.017" y="1073.2" width="16" height="16" fill="#dcebee" fill-opacity=".48259" fill-rule="evenodd"/>
  <g id="rotate" transform="translate(-8.782 .27691)">
   <rect id="rect2211" x="31.92" y="1063" width="16" height="16" fill="none"/>
   <g id="g2225" transform="matrix(1.487 0 0 1.487 -18.946 -521.65)" fill="#c8ebee" fill-rule="evenodd" shape-rendering="auto">
    <path id="path1484" d="m35.324 1066.5a0.48005 0.48005 0 0 0 0.04102 0.959l1.166 0.01c-1.2546 1.1515-1.8119 2.9209-1.3574 4.6172 0.54375 2.0293 2.3874 3.4453 4.4883 3.4453a0.48047 0.48047 0 1 0 0-0.9609c-1.671 0-3.1281-1.1184-3.5605-2.7325-0.37014-1.3814 0.09483-2.8196 1.1426-3.7304l0.0078 1.2226a0.4805 0.4805 0 1 0 0.96094-0.01l-0.01758-2.8028-2.8223-0.019a0.48005 0.48005 0 0 0-0.04883 0z" color="#000000" color-rendering="auto" dominant-baseline="auto" image-rendering="auto" solid-color="#000000" style="font-feature-settings:normal;font-variant-alternates:normal;font-variant-caps:normal;font-variant-ligatures:normal;font-variant-numeric:normal;font-variant-position:normal;isolation:auto;mix-blend-mode:normal;shape-padding:0;text-decoration-color:#000000;text-decoration-line:none;text-decoration-style:solid;text-indent:0;text-orientation:mixed;text-transform:none;white-space:normal"/>
    <path id="path2221" d="m43.847 1075.5a0.48005 0.48005 0 0 0-0.04101-0.959l-1.166-0.01c1.2546-1.1515 1.8119-2.9209 1.3574-4.6172-0.54375-2.0293-2.3874-3.4453-4.4883-3.4453a0.48047 0.48047 0 1 0 0 0.9609c1.671 0 3.1281 1.1183 3.5605 2.7324 0.37014 1.3814-0.09483 2.8197-1.1426 3.7305l-0.0078-1.2226a0.4805 0.4805 0 1 0-0.96094 0.01l0.01758 2.8028 2.8223 0.019a0.48005 0.48005 0 0 0 0.04883 0z" color="#000000" color-rendering="auto" dominant-baseline="auto" image-rendering="auto" solid-color="#000000" style="font-feature-settings:normal;font-variant-alternates:normal;font-variant-caps:normal;font-variant-ligatures:normal;font-variant-numeric:normal;font-variant-position:normal;isolation:auto;mix-blend-mode:normal;shape-padding:0;text-decoration-color:#000000;text-decoration-line:none;text-decoration-style:solid;text-indent:0;text-orientation:mixed;text-transform:none;white-space:normal"/>
   </g>
  </g>
  <g id="delete" transform="translate(-14.697 30.143)" fill="none">
   <rect id="rect2926" x="53.835" y="1033.1" width="16" height="16"/>
   <circle id="path2940" cx="61.948" cy="1040.9" r="5.8378" stroke="#ff4037" stroke-linecap="round" stroke-linejoin="bevel" stroke-width="1.92"/>
   <path id="path2952" d="m57.837 1036.8 8.2238 8.2238" stroke="#ff4037" stroke-width="1.92"/>
  </g>
  <path id="path2965" d="m10.357 1041.6a0.71385 0.71385 0 0 0-0.06098-1.4261l-1.7339-0.015c1.8657-1.7123 2.6944-4.3435 2.0186-6.8659-0.80858-3.0177-3.5502-5.1234-6.6743-5.1234a0.71448 0.71448 0 1 0 0 1.4289c2.4849 0 4.6516 1.663 5.2947 4.0632 0.55042 2.0542-0.14102 4.1931-1.6991 5.5475l-0.011599-1.8181a0.71452 0.71452 0 1 0-1.429 0.015l0.026142 4.1679 4.1968 0.028a0.71385 0.71385 0 0 0 0.07261 0z" color="#000000" color-rendering="auto" dominant-baseline="auto" fill="#c8ebee" fill-rule="evenodd" image-rendering="auto" shape-rendering="auto" solid-color="#000000" style="font-feature-settings:normal;font-variant-alternates:normal;font-variant-caps:normal;font-variant-ligatures:normal;font-variant-numeric:normal;font-variant-position:normal;isolation:auto;mix-blend-mode:normal;shape-padding:0;text-decoration-color:#000000;text-decoration-line:none;text-decoration-style:solid;text-indent:0;text-orientation:mixed;text-transform:none;white-space:normal"/>
  <g id="size-diagonal-tr2bl" transform="translate(26.122 34.435)">
   <rect id="rect2959" x="29.016" y="1028.8" width="16" height="16" fill="none"/>
   <path id="path2963" d="m39.72 1029.8c-0.93051 0.059-0.87116 1.4467 0.061 1.4261l1.7339 0.015c-5.8582 7.1846-5.4778 7.4876 1.0601 0.9497l0.0116 1.8181c0.01 0.9526 1.439 0.9376 1.429-0.015l-0.02614-4.1679-4.1968-0.028h-0.07261z" color="#000000" color-rendering="auto" dominant-baseline="auto" fill="#c8ebee" fill-rule="evenodd" image-rendering="auto" shape-rendering="auto" solid-color="#000000" style="font-feature-settings:normal;font-variant-alternates:normal;font-variant-caps:normal;font-variant-ligatures:normal;font-variant-numeric:normal;font-variant-position:normal;isolation:auto;mix-blend-mode:normal;shape-padding:0;text-decoration-color:#000000;text-decoration-line:none;text-decoration-style:solid;text-indent:0;text-orientation:mixed;text-transform:none;white-space:normal"/>
   <path id="path2988" d="m34.311 1043.8c0.93051-0.059 0.87116-1.4467-0.061-1.4261l-1.7339-0.015c5.8582-7.1846 5.4778-7.4876-1.0601-0.9497l-0.0116-1.8181c-0.01-0.9526-1.439-0.9376-1.429 0.015l0.02614 4.1679 4.1968 0.028h0.07261z" color="#000000" color-rendering="auto" dominant-baseline="auto" fill="#c8ebee" fill-rule="evenodd" image-rendering="auto" shape-rendering="auto" solid-color="#000000" style="font-feature-settings:normal;font-variant-alternates:normal;font-variant-caps:normal;font-variant-ligatures:normal;font-variant-numeric:normal;font-variant-position:normal;isolation:auto;mix-blend-mode:normal;shape-padding:0;text-decoration-color:#000000;text-decoration-line:none;text-decoration-style:solid;text-indent:0;text-orientation:mixed;text-transform:none;white-space:normal"/>
  </g>
 </g>
</svg>
