<?xml version="1.0" encoding="UTF-8"?>
<!-- Created with Inkscape (http://www.inkscape.org/) -->
<svg id="svg986" width="113" height="78.536" version="1.1" viewBox="0 0 113 78.536" xmlns="http://www.w3.org/2000/svg" xmlns:cc="http://creativecommons.org/ns#" xmlns:dc="http://purl.org/dc/elements/1.1/" xmlns:rdf="http://www.w3.org/1999/02/22-rdf-syntax-ns#">
 <metadata id="metadata983">
  <rdf:RDF>
   <cc:Work rdf:about="">
    <dc:format>image/svg+xml</dc:format>
    <dc:type rdf:resource="http://purl.org/dc/dcmitype/StillImage"/>
    <dc:title/>
   </cc:Work>
  </rdf:RDF>
 </metadata>
 <g id="layer1" transform="translate(-13.011 -1015.9)">
  <rect id="base-center" x="26.011" y="1029.9" width="32" height="16" fill="#182629" fill-rule="evenodd"/>
  <rect id="base-top" x="26.011" y="1023.9" width="32" height="6" fill="#182629" fill-rule="evenodd"/>
  <rect id="base-bottom" transform="scale(1,-1)" x="26.011" y="-1050.9" width="32" height="5" fill="#182629" fill-rule="evenodd"/>
  <rect id="base-right" transform="matrix(0,-1,-1,0,0,0)" x="-1045.9" y="-63.011" width="16" height="5" fill="#182629" fill-rule="evenodd"/>
  <rect id="base-left" transform="rotate(-90)" x="-1045.9" y="21.011" width="16" height="5" fill="#182629" fill-rule="evenodd"/>
  <rect id="base-bottomright" x="58.011" y="1045.9" width="5" height="5" fill="#182629" fill-rule="evenodd"/>
  <rect id="base-bottomleft" transform="scale(-1,1)" x="-26.011" y="1045.9" width="5" height="5" fill="#182629" fill-rule="evenodd"/>
  <rect id="base-topright" x="58.011" y="1023.9" width="5" height="6" fill="#182629" fill-rule="evenodd"/>
  <rect id="base-topleft" transform="scale(-1,1)" x="-26.011" y="1023.9" width="5" height="6" fill="#182629" fill-rule="evenodd"/>
  <rect id="base-hint-top-margin" x="26.011" y="1025.9" width="1" height="4" fill="#bed4d9" fill-rule="evenodd"/>
  <rect id="base-hint-bottom-margin" x="57.011" y="1045.9" width="1" height="4" fill="#bed4d9" fill-rule="evenodd"/>
  <rect id="base-hint-left-margin" transform="rotate(90)" x="1044.9" y="-26.011" width="1" height="4" fill="#bed4d9" fill-rule="evenodd"/>
  <rect id="base-hint-right-margin" transform="rotate(90)" x="1029.9" y="-62.011" width="1" height="4" fill="#bed4d9" fill-rule="evenodd"/>
  <rect id="focus-center" x="81.011" y="1065.5" width="32" height="16" fill="#bed4d9" fill-rule="evenodd"/>
  <g id="focus-bottom" transform="translate(1.8309 -9.9121)">
   <rect id="rect873" transform="scale(1,-1)" x="79.18" y="-1096.4" width="32" height="5" fill="none"/>
   <rect id="rect867" transform="scale(1,-1)" x="79.18" y="-1095.4" width="32" height="4" fill="#6f97a0" fill-rule="evenodd"/>
  </g>
  <g id="focus-top" transform="matrix(1 0 0 -1 1.8309 2156.9)">
   <rect id="rect869" transform="scale(1,-1)" x="79.18" y="-1096.4" width="32" height="5" fill="none"/>
   <rect id="rect871" transform="scale(1,-1)" x="79.18" y="-1095.4" width="32" height="4" fill="#6f97a0" fill-rule="evenodd"/>
  </g>
  <g id="focus-right" transform="matrix(0 -.5 1 0 -978.37 1121.1)">
   <rect id="rect870" transform="scale(1,-1)" x="79.18" y="-1096.4" width="32" height="5" fill="none"/>
   <rect id="rect875" transform="scale(1,-1)" x="79.18" y="-1095.4" width="32" height="4" fill="#6f97a0" fill-rule="evenodd"/>
  </g>
  <g id="focus-left" transform="matrix(0 -.5 -1 0 1172.4 1121.1)">
   <rect id="rect879" transform="scale(1,-1)" x="79.18" y="-1096.4" width="32" height="5" fill="none"/>
   <rect id="rect881" transform="scale(1,-1)" x="79.18" y="-1095.4" width="32" height="4" fill="#6f97a0" fill-rule="evenodd"/>
  </g>
  <g id="focus-topright" transform="translate(-9.1545 5.6821)">
   <rect id="rect891" x="122.17" y="1054.8" width="5" height="5" fill="none"/>
   <rect id="rect885" x="122.17" y="1055.8" width="4" height="4" fill="#6f97a0" fill-rule="evenodd"/>
  </g>
  <g id="focus-bottomright" transform="matrix(1 0 0 -1 -9.1545 2141.3)">
   <rect id="rect893" x="122.17" y="1054.8" width="5" height="5" fill="none"/>
   <rect id="rect895" x="122.17" y="1055.8" width="4" height="4" fill="#6f97a0" fill-rule="evenodd"/>
  </g>
  <g id="focus-topleft" transform="matrix(-1 0 0 1 203.18 5.6821)">
   <rect id="rect899" x="122.17" y="1054.8" width="5" height="5" fill="none"/>
   <rect id="rect901" x="122.17" y="1055.8" width="4" height="4" fill="#6f97a0" fill-rule="evenodd"/>
  </g>
  <g id="focus-bottomleft" transform="rotate(180 101.59 1070.6)">
   <rect id="rect905" x="122.17" y="1054.8" width="5" height="5" fill="none"/>
   <rect id="rect907" x="122.17" y="1055.8" width="4" height="4" fill="#6f97a0" fill-rule="evenodd"/>
  </g>
  <rect id="hover-center" x="26.463" y="1065.2" width="32" height="16" fill="#bed4d9" fill-rule="evenodd"/>
  <g id="hover-bottom" transform="translate(-52.717 -10.165)">
   <rect id="rect888" transform="scale(1,-1)" x="79.18" y="-1096.4" width="32" height="5" fill="none"/>
   <rect id="rect890" transform="scale(1,-1)" x="79.18" y="-1095.4" width="32" height="4" fill="#597e87" fill-rule="evenodd"/>
  </g>
  <g id="hover-top" transform="matrix(1 0 0 -1 -52.717 2156.6)">
   <rect id="rect894" transform="scale(1,-1)" x="79.18" y="-1096.4" width="32" height="5" fill="none"/>
   <rect id="rect896" transform="scale(1,-1)" x="79.18" y="-1095.4" width="32" height="4" fill="#597e87" fill-rule="evenodd"/>
  </g>
  <g id="hover-right" transform="matrix(0 -.5 1 0 -1032.9 1120.8)">
   <rect id="rect900" transform="scale(1,-1)" x="79.18" y="-1096.4" width="32" height="5" fill="none"/>
   <rect id="rect902" transform="scale(1,-1)" x="79.18" y="-1095.4" width="32" height="4" fill="#597e87" fill-rule="evenodd"/>
  </g>
  <g id="hover-left" transform="matrix(0 -.5 -1 0 1117.8 1120.8)">
   <rect id="rect906" transform="scale(1,-1)" x="79.18" y="-1096.4" width="32" height="5" fill="none"/>
   <rect id="rect908" transform="scale(1,-1)" x="79.18" y="-1095.4" width="32" height="4" fill="#597e87" fill-rule="evenodd"/>
  </g>
  <g id="hover-topright" transform="translate(-63.703 5.4296)">
   <rect id="rect912" x="122.17" y="1054.8" width="5" height="5" fill="none"/>
   <rect id="rect914" x="122.17" y="1055.8" width="4" height="4" fill="#597e87" fill-rule="evenodd"/>
  </g>
  <g id="hover-bottomright" transform="matrix(1 0 0 -1 -63.703 2141)">
   <rect id="rect918" x="122.17" y="1054.8" width="5" height="5" fill="none"/>
   <rect id="rect920" x="122.17" y="1055.8" width="4" height="4" fill="#597e87" fill-rule="evenodd"/>
  </g>
  <g id="hover-topleft" transform="matrix(-1 0 0 1 148.63 5.4296)">
   <rect id="rect924" x="122.17" y="1054.8" width="5" height="5" fill="none"/>
   <rect id="rect926" x="122.17" y="1055.8" width="4" height="4" fill="#597e87" fill-rule="evenodd"/>
  </g>
  <g id="hover-bottomleft" transform="rotate(180 74.315 1070.5)">
   <rect id="rect930" x="122.17" y="1054.8" width="5" height="5" fill="none"/>
   <rect id="rect932" x="122.17" y="1055.8" width="4" height="4" fill="#597e87" fill-rule="evenodd"/>
  </g>
  <rect id="focus-hint-top-margin" x="81.012" y="1063.5" width="1" height="2" fill="#bed4d9" fill-rule="evenodd"/>
  <rect id="focus-hint-left-margin" transform="rotate(90)" x="1080.5" y="-81.011" width="1" height="2" fill="#bed4d9" fill-rule="evenodd"/>
  <rect id="focus-hint-bottom-margin" x="112.01" y="1081.5" width="1" height="2" fill="#bed4d9" fill-rule="evenodd"/>
  <rect id="focus-hint-right-margin" transform="rotate(90)" x="1065.5" y="-115.01" width="1" height="2" fill="#bed4d9" fill-rule="evenodd"/>
  <rect id="hover-hint-bottom-margin" x="26.463" y="1063.2" width="1" height="2" fill="#bed4d9" fill-rule="evenodd"/>
  <rect id="hover-hint-left-margin" transform="rotate(90)" x="1080.2" y="-26.463" width="1" height="2" fill="#bed4d9" fill-rule="evenodd"/>
  <rect id="hover-hint-right-margin" transform="rotate(90)" x="1065.2" y="-60.463" width="1" height="2" fill="#bed4d9" fill-rule="evenodd"/>
  <rect id="hover-hint-top-margin" x="57.463" y="1081.2" width="1" height="2" fill="#bed4d9" fill-rule="evenodd"/>
 </g>
</svg>
