<?xml version="1.0" encoding="UTF-8"?>
<!-- Created with Inkscape (http://www.inkscape.org/) -->
<svg id="svg898" width="48" height="48" version="1.1" viewBox="0 0 48 48" xmlns="http://www.w3.org/2000/svg" xmlns:cc="http://creativecommons.org/ns#" xmlns:dc="http://purl.org/dc/elements/1.1/" xmlns:rdf="http://www.w3.org/1999/02/22-rdf-syntax-ns#">
 <metadata id="metadata895">
  <rdf:RDF>
   <cc:Work rdf:about="">
    <dc:format>image/svg+xml</dc:format>
    <dc:type rdf:resource="http://purl.org/dc/dcmitype/StillImage"/>
    <dc:title/>
   </cc:Work>
  </rdf:RDF>
 </metadata>
 <g id="layer1" transform="translate(0 -1074.5)" fill-rule="evenodd">
  <rect id="normal-center" x="5.4464" y="1090" width="8" height="8" fill="#192a2e" fill-opacity=".49751"/>
  <rect id="normal-bottom" x="5.4464" y="1098" width="8" height="1" fill="#192a2e" fill-opacity=".49751"/>
  <rect id="normal-top" x="5.4464" y="1089" width="8" height="1" fill="#192a2e" fill-opacity=".49751"/>
  <rect id="normal-left" transform="rotate(-90)" x="-1098" y="4.4464" width="8" height="1" fill="#192a2e" fill-opacity=".49751"/>
  <rect id="normal-right" transform="rotate(-90)" x="-1098" y="13.446" width="8" height="1" fill="#192a2e" fill-opacity=".49751"/>
  <rect id="normal-topleft" x="4.4464" y="1089" width="1" height="1" fill="#192a2e" fill-opacity=".49751"/>
  <rect id="normal-topright" x="13.446" y="1089" width="1" height="1" fill="#192a2e" fill-opacity=".49751"/>
  <rect id="normal-bottomleft" x="4.4464" y="1098" width="1" height="1" fill="#192a2e" fill-opacity=".49751"/>
  <rect id="normal-bottomright" x="13.446" y="1098" width="1" height="1" fill="#192a2e" fill-opacity=".49751"/>
  <rect id="hover-center" x="22.902" y="1090.1" width="8" height="8" fill="#dcebee" fill-opacity=".039409"/>
  <rect id="hover-bottom" x="22.902" y="1098.1" width="8" height="1" fill="#dcebee" fill-opacity=".36946"/>
  <rect id="hover-top" x="22.902" y="1089.1" width="8" height="1" fill="#dcebee" fill-opacity=".36946"/>
  <rect id="hover-left" transform="rotate(-90)" x="-1098.1" y="21.902" width="8" height="1" fill="#dcebee" fill-opacity=".36946"/>
  <rect id="hover-right" transform="rotate(-90)" x="-1098.1" y="30.902" width="8" height="1" fill="#dcebee" fill-opacity=".36946"/>
  <rect id="hover-topleft" x="21.902" y="1089.1" width="1" height="1" fill="#dcebee" fill-opacity=".36946"/>
  <rect id="hover-topright" x="30.902" y="1089.1" width="1" height="1" fill="#dcebee" fill-opacity=".36946"/>
  <rect id="hover-bottomleft" x="21.902" y="1098.1" width="1" height="1" fill="#dcebee" fill-opacity=".36946"/>
  <rect id="hover-bottomright" x="30.902" y="1098.1" width="1" height="1" fill="#dcebee" fill-opacity=".36946"/>
  <rect id="active-center" x="5.3125" y="1105.3" width="8" height="8" fill="#dcebee" fill-opacity=".37811"/>
  <rect id="active-bottom" x="5.3125" y="1113.3" width="8" height="1" fill="#dcebee" fill-opacity=".37811"/>
  <rect id="active-top" x="5.3125" y="1104.3" width="8" height="1" fill="#dcebee" fill-opacity=".37811"/>
  <rect id="active-left" transform="rotate(-90)" x="-1113.3" y="4.3125" width="8" height="1" fill="#dcebee" fill-opacity=".37811"/>
  <rect id="active-right" transform="rotate(-90)" x="-1113.3" y="13.312" width="8" height="1" fill="#dcebee" fill-opacity=".37811"/>
  <rect id="active-topleft" x="4.3125" y="1104.3" width="1" height="1" fill="#dcebee" fill-opacity=".37811"/>
  <rect id="active-topright" x="13.312" y="1104.3" width="1" height="1" fill="#dcebee" fill-opacity=".37811"/>
  <rect id="active-bottomleft" x="4.3125" y="1113.3" width="1" height="1" fill="#dcebee" fill-opacity=".37811"/>
  <rect id="active-bottomright" x="13.312" y="1113.3" width="1" height="1" fill="#dcebee" fill-opacity=".37811"/>
 </g>
</svg>
