<?xml version="1.0" encoding="UTF-8"?>
<!-- Created with Inkscape (http://www.inkscape.org/) -->
<svg id="svg967" width="66" height="47" version="1.1" viewBox="0 0 66 47" xmlns="http://www.w3.org/2000/svg" xmlns:cc="http://creativecommons.org/ns#" xmlns:dc="http://purl.org/dc/elements/1.1/" xmlns:rdf="http://www.w3.org/1999/02/22-rdf-syntax-ns#">
 <metadata id="metadata964">
  <rdf:RDF>
   <cc:Work rdf:about="">
    <dc:format>image/svg+xml</dc:format>
    <dc:type rdf:resource="http://purl.org/dc/dcmitype/StillImage"/>
    <dc:title/>
   </cc:Work>
  </rdf:RDF>
 </metadata>
 <g id="layer1" transform="translate(2.7321 -1071.1)">
  <rect id="slider-topleft" x="5.2679" y="1079.1" width="4" height="4" fill="#4b6871" fill-rule="evenodd"/>
  <rect id="slider-top" x="9.2679" y="1079.1" width="4" height="4" fill="#4b6871" fill-rule="evenodd"/>
  <rect id="slider-topright" x="13.268" y="1079.1" width="4" height="4" fill="#4b6871" fill-rule="evenodd"/>
  <rect id="slider-right" x="13.268" y="1083.1" width="4" height="4" fill="#4b6871" fill-rule="evenodd"/>
  <rect id="slider-center" x="9.2679" y="1083.1" width="4" height="4" fill="#4b6871" fill-rule="evenodd"/>
  <rect id="slider-left" x="5.2679" y="1083.1" width="4" height="4" fill="#4b6871" fill-rule="evenodd"/>
  <rect id="slider-bottomleft" x="5.2679" y="1087.1" width="4" height="4" fill="#4b6871" fill-rule="evenodd"/>
  <rect id="slider-bottom" x="9.2679" y="1087.1" width="4" height="4" fill="#4b6871" fill-rule="evenodd"/>
  <rect id="slider-bottomright" x="13.268" y="1087.1" width="4" height="4" fill="#4b6871" fill-rule="evenodd"/>
  <g id="g1589" transform="translate(-4.75 -.96802)" fill="#a66f9a" fill-rule="evenodd">
   <rect id="mouseover-slider-topleft" x="29.018" y="1080" width="4" height="4"/>
   <rect id="mouseover-slider-top" x="33.018" y="1080" width="4" height="4"/>
   <rect id="mouseover-slider-topright" x="37.018" y="1080" width="4" height="4"/>
   <rect id="mouseover-slider-right" x="37.018" y="1084" width="4" height="4"/>
   <rect id="mouseover-slider-center" x="33.018" y="1084" width="4" height="4"/>
   <rect id="mouseover-slider-left" x="29.018" y="1084" width="4" height="4"/>
   <rect id="mouseover-slider-bottomleft" x="29.018" y="1088" width="4" height="4"/>
   <rect id="mouseover-slider-bottom" x="33.018" y="1088" width="4" height="4"/>
   <rect id="mouseover-slider-bottomright" x="37.018" y="1088" width="4" height="4"/>
  </g>
  <rect id="sunken-slider-topleft" x="5.2679" y="1098.1" width="4" height="4" fill="#80a1ab" fill-rule="evenodd"/>
  <rect id="sunken-slider-top" x="9.2679" y="1098.1" width="4" height="4" fill="#80a1ab" fill-rule="evenodd"/>
  <rect id="sunken-slider-topright" x="13.268" y="1098.1" width="4" height="4" fill="#80a1ab" fill-rule="evenodd"/>
  <rect id="sunken-slider-right" x="13.268" y="1102.1" width="4" height="4" fill="#80a1ab" fill-rule="evenodd"/>
  <rect id="sunken-slider-center" x="9.2679" y="1102.1" width="4" height="4" fill="#80a1ab" fill-rule="evenodd"/>
  <rect id="sunken-slider-left" x="5.2679" y="1102.1" width="4" height="4" fill="#80a1ab" fill-rule="evenodd"/>
  <rect id="sunken-slider-bottomleft" x="5.2679" y="1106.1" width="4" height="4" fill="#80a1ab" fill-rule="evenodd"/>
  <rect id="sunken-slider-bottom" x="9.2679" y="1106.1" width="4" height="4" fill="#80a1ab" fill-rule="evenodd"/>
  <rect id="sunken-slider-bottomright" x="13.268" y="1106.1" width="4" height="4" fill="#80a1ab" fill-rule="evenodd"/>
  <rect id="hint-scrollbar-size" x="45.864" y="1072.5" width="8" height="8" fill="#6fa683" fill-rule="evenodd"/>
  <rect id="background-vertical-topleft" x="24.268" y="1098.1" width="4" height="4" fill="#24393e" fill-rule="evenodd"/>
  <rect id="background-vertical-top" x="28.268" y="1098.1" width="4" height="4" fill="#24393e" fill-rule="evenodd"/>
  <rect id="background-vertical-topright" x="32.268" y="1098.1" width="4" height="4" fill="#24393e" fill-rule="evenodd"/>
  <rect id="background-vertical-right" x="32.268" y="1102.1" width="4" height="4" fill="#24393e" fill-rule="evenodd"/>
  <rect id="background-vertical-center" x="28.268" y="1102.1" width="4" height="4" fill="#24393e" fill-rule="evenodd"/>
  <rect id="background-vertical-left" x="24.268" y="1102.1" width="4" height="4" fill="#24393e" fill-rule="evenodd"/>
  <rect id="background-vertical-bottomleft" x="24.268" y="1106.1" width="4" height="4" fill="#24393e" fill-rule="evenodd"/>
  <rect id="background-vertical-bottom" x="28.268" y="1106.1" width="4" height="4" fill="#24393e" fill-rule="evenodd"/>
  <rect id="background-vertical-bottomright" x="32.268" y="1106.1" width="4" height="4" fill="#24393e" fill-rule="evenodd"/>
  <g id="g1620" transform="translate(-15.69 -1.1177)">
   <g id="arrow-up" transform="translate(-1.9887 3.3461)">
    <rect id="rect2186" x="60.946" y="1080.8" width="4" height="4" fill="none"/>
    <path id="path2180" d="m64.946 1084.3h-2-2l1-1.732 1-1.7321 1 1.7321z" fill="#dcebee" fill-rule="evenodd"/>
   </g>
   <g id="arrow-down" transform="matrix(1 0 0 -1 -1.9887 2173)">
    <rect id="rect2188" x="60.946" y="1080.8" width="4" height="4" fill="none"/>
    <path id="path2190" d="m64.946 1084.3h-2-2l1-1.732 1-1.7321 1 1.7321z" fill="#dcebee" fill-rule="evenodd"/>
   </g>
   <g id="sunken-arrow-up" transform="translate(2.0113 3.3461)">
    <rect id="rect1491" x="60.946" y="1080.8" width="4" height="4" fill="none"/>
    <path id="path1493" d="m64.946 1084.3h-2-2l1-1.732 1-1.7321 1 1.7321z" fill="#182629" fill-rule="evenodd"/>
   </g>
   <g id="sunken-arrow-down" transform="matrix(1 0 0 -1 2.0113 2173)">
    <rect id="rect1497" x="60.946" y="1080.8" width="4" height="4" fill="none"/>
    <path id="path1499" d="m64.946 1084.3h-2-2l1-1.732 1-1.7321 1 1.7321z" fill="#182629" fill-rule="evenodd"/>
   </g>
   <g id="mouseover-arrow-up" transform="translate(6.0113 3.3461)" fill-rule="evenodd">
    <rect id="rect1503" x="60.946" y="1080.8" width="4" height="4" fill="#182629"/>
    <path id="path1505" d="m64.946 1084.3h-2-2l1-1.732 1-1.7321 1 1.7321z" fill="#dcebee"/>
   </g>
   <g id="mouseover-arrow-down" transform="matrix(1 0 0 -1 6.0113 2173)" fill-rule="evenodd">
    <rect id="rect1509" x="60.946" y="1080.8" width="4" height="4" fill="#182629"/>
    <path id="path1511" d="m64.946 1084.3h-2-2l1-1.732 1-1.7321 1 1.7321z" fill="#dcebee"/>
   </g>
  </g>
  <g id="g1600" transform="translate(-10.015 -2.8826)" fill="#182629" fill-rule="evenodd">
   <rect id="background-horizontal-topleft" x="53.283" y="1101" width="4" height="4"/>
   <rect id="background-horizontal-top" x="57.283" y="1101" width="4" height="4"/>
   <rect id="background-horizontal-topright" x="61.283" y="1101" width="4" height="4"/>
   <rect id="background-horizontal-right" x="61.283" y="1105" width="4" height="4"/>
   <rect id="background-horizontal-center" x="57.283" y="1105" width="4" height="4"/>
   <rect id="background-horizontal-left" x="53.283" y="1105" width="4" height="4"/>
   <rect id="background-horizontal-bottomleft" x="53.283" y="1109" width="4" height="4"/>
   <rect id="background-horizontal-bottom" x="57.283" y="1109" width="4" height="4"/>
   <rect id="background-horizontal-bottomright" x="61.283" y="1109" width="4" height="4"/>
  </g>
 </g>
</svg>
