<?xml version="1.0" encoding="UTF-8"?>
<!-- Created with Inkscape (http://www.inkscape.org/) -->
<svg id="svg872" width="82" height="78" version="1.1" viewBox="0 0 82 78" xmlns="http://www.w3.org/2000/svg" xmlns:cc="http://creativecommons.org/ns#" xmlns:dc="http://purl.org/dc/elements/1.1/" xmlns:rdf="http://www.w3.org/1999/02/22-rdf-syntax-ns#" xmlns:xlink="http://www.w3.org/1999/xlink">
 <defs id="defs866">
  <linearGradient id="linearGradient892">
   <stop id="stop888" stop-color="#d7e5e8" offset="0"/>
   <stop id="stop890" stop-color="#88b0b9" offset="1"/>
  </linearGradient>
  <linearGradient id="linearGradient894" x1="30.517" x2="30.463" y1="1122.5" y2="1141.8" gradientUnits="userSpaceOnUse">
   <stop id="stop898" stop-color="#d7e5e8" offset="0"/>
   <stop id="stop900" stop-color="#a6c3ca" offset="1"/>
  </linearGradient>
  <linearGradient id="linearGradient890" x1="67.187" x2="67.187" y1="1118" y2="1145.9" gradientUnits="userSpaceOnUse" xlink:href="#linearGradient892"/>
 </defs>
 <metadata id="metadata869">
  <rdf:RDF>
   <cc:Work rdf:about="">
    <dc:format>image/svg+xml</dc:format>
    <dc:type rdf:resource="http://purl.org/dc/dcmitype/StillImage"/>
    <dc:title/>
   </cc:Work>
  </rdf:RDF>
 </metadata>
 <g id="layer1" transform="translate(6.5146 -1069.1)">
  <g id="g935" transform="translate(6.6875 -.0893)">
   <rect id="groove-highlight-right" x="29.798" y="1087.1" width="4" height="4" fill="#296a7a" fill-rule="evenodd"/>
   <rect id="groove-highlight-center" x="25.798" y="1087.1" width="4" height="4" fill="#296a7a" fill-rule="evenodd"/>
   <rect id="groove-highlight-left" x="21.798" y="1087.1" width="4" height="4" fill="#296a7a" fill-rule="evenodd"/>
   <g id="groove-highlight-bottom" transform="matrix(1 0 0 -1 19.239 2167.6)">
    <rect id="rect953" x="6.5586" y="1072.4" width="4" height="4" fill="none"/>
    <rect id="rect955" x="6.5586" y="1074.4" width="4" height="2" fill="#296a7a" fill-rule="evenodd"/>
   </g>
   <g id="groove-highlight-bottomright" transform="matrix(1 0 0 -1 23.239 2167.6)">
    <rect id="rect959" x="6.5586" y="1072.4" width="4" height="4" fill="none"/>
    <rect id="rect961" x="6.5586" y="1074.4" width="4" height="2" fill="#296a7a" fill-rule="evenodd"/>
   </g>
   <g id="groove-highlight-bottomleft" transform="matrix(1 0 0 -1 15.239 2167.6)">
    <rect id="rect965" x="6.5586" y="1072.4" width="4" height="4" fill="none"/>
    <rect id="rect967" x="6.5586" y="1074.4" width="4" height="2" fill="#296a7a" fill-rule="evenodd"/>
   </g>
   <g id="groove-highlight-topleft" transform="translate(1.8527 4.2634)">
    <rect id="rect941" x="19.945" y="1078.9" width="4" height="4" fill="none"/>
    <rect id="rect943" x="19.945" y="1080.9" width="4" height="2" fill="#296a7a" fill-rule="evenodd"/>
    <rect id="rect866" x="19.945" y="1080.9" width="4" height="1" fill="#2e7789" fill-rule="evenodd"/>
   </g>
   <g id="groove-highlight-top" transform="translate(5.8527 4.2634)">
    <rect id="rect873" x="19.945" y="1078.9" width="4" height="4" fill="none"/>
    <rect id="rect875" x="19.945" y="1080.9" width="4" height="2" fill="#296a7a" fill-rule="evenodd"/>
    <rect id="rect877" x="19.945" y="1080.9" width="4" height="1" fill="#2e7789" fill-rule="evenodd"/>
   </g>
   <g id="groove-highlight-topright" transform="translate(9.8527 4.2633)">
    <rect id="rect881" x="19.945" y="1078.9" width="4" height="4" fill="none"/>
    <rect id="rect883" x="19.945" y="1080.9" width="4" height="2" fill="#296a7a" fill-rule="evenodd"/>
    <rect id="rect885" x="19.945" y="1080.9" width="4" height="1" fill="#2e7789" fill-rule="evenodd"/>
   </g>
  </g>
  <circle id="path1460" cx="56.485" cy="1086.1" r="9" fill="#296a7a" fill-rule="evenodd"/>
  <g id="horizontal-slider-handle" transform="translate(-17.96 -25.919)">
   <rect id="rect874" x="19.445" y="1121" width="22" height="22" fill="none"/>
   <circle id="circle1462" cx="30.445" cy="1132" r="9" fill="#182629" fill-opacity=".99507" fill-rule="evenodd"/>
   <circle id="circle1465" cx="30.445" cy="1132" r="8.5" fill="url(#linearGradient894)" fill-rule="evenodd"/>
  </g>
  <g id="g961" transform="translate(5)">
   <rect id="groove-right" x="9.4854" y="1087.1" width="4" height="4" fill="#182629" fill-rule="evenodd"/>
   <rect id="groove-center" x="5.4854" y="1087.1" width="4" height="4" fill="#182629" fill-rule="evenodd"/>
   <rect id="groove-left" x="1.4854" y="1087.1" width="4" height="4" fill="#182629" fill-rule="evenodd"/>
   <g id="groove-top" transform="translate(-1.0733 10.629)">
    <rect id="rect863" x="6.5586" y="1072.4" width="4" height="4" fill="none"/>
    <rect id="rect838" x="6.5586" y="1074.4" width="4" height="2" fill="#182629" fill-rule="evenodd"/>
   </g>
   <g id="groove-topleft" transform="translate(-5.0733 10.629)">
    <rect id="rect844" x="6.5586" y="1072.4" width="4" height="4" fill="none"/>
    <rect id="rect846" x="6.5586" y="1074.4" width="4" height="2" fill="#182629" fill-rule="evenodd"/>
   </g>
   <g id="groove-topright" transform="translate(2.9267 10.629)">
    <rect id="rect850" x="6.5586" y="1072.4" width="4" height="4" fill="none"/>
    <rect id="rect852" x="6.5586" y="1074.4" width="4" height="2" fill="#182629" fill-rule="evenodd"/>
   </g>
   <g id="groove-bottomleft" transform="translate(-.3125 -3.4152)">
    <rect id="rect868" transform="scale(1,-1)" x="1.7979" y="-1098.5" width="4" height="4" fill="none"/>
    <rect id="rect870" transform="scale(1,-1)" x="1.7979" y="-1096.5" width="4" height="2" fill="#182629" fill-rule="evenodd"/>
    <rect id="rect1468" transform="scale(1,-1)" x="1.7979" y="-1096.5" width="4" height="1" fill="#232f35" fill-rule="evenodd"/>
   </g>
   <g id="groove-bottom" transform="translate(3.6875 -3.4152)">
    <rect id="rect1475" transform="scale(1,-1)" x="1.7979" y="-1098.5" width="4" height="4" fill="none"/>
    <rect id="rect1477" transform="scale(1,-1)" x="1.7979" y="-1096.5" width="4" height="2" fill="#182629" fill-rule="evenodd"/>
    <rect id="rect1479" transform="scale(1,-1)" x="1.7979" y="-1096.5" width="4" height="1" fill="#232f35" fill-rule="evenodd"/>
   </g>
   <g id="groove-bottomright" transform="translate(7.6875 -3.4152)">
    <rect id="rect1483" transform="scale(1,-1)" x="1.7979" y="-1098.5" width="4" height="4" fill="none"/>
    <rect id="rect1485" transform="scale(1,-1)" x="1.7979" y="-1096.5" width="4" height="2" fill="#182629" fill-rule="evenodd"/>
    <rect id="rect1487" transform="scale(1,-1)" x="1.7979" y="-1096.5" width="4" height="1" fill="#232f35" fill-rule="evenodd"/>
   </g>
  </g>
  <g id="horizontal-slider-hover" transform="translate(-32.416 -26.125)">
   <rect id="rect884" x="55.901" y="1121.2" width="22" height="22" fill="none"/>
   <circle id="circle892" cx="66.901" cy="1132.2" r="9.5" fill="url(#linearGradient890)" fill-rule="evenodd"/>
  </g>
  <g id="horizontal-slider-focus" transform="translate(-58.503 -26.049)">
   <rect id="rect886" x="103.99" y="1121.1" width="22" height="22" fill="none"/>
   <circle id="circle898" cx="114.99" cy="1132.1" r="10" fill="#4b7a29" fill-opacity=".5468" fill-rule="evenodd"/>
  </g>
  <g id="vertical-slider-handle" transform="translate(-17.96 -3.9191)">
   <rect id="rect887" x="19.445" y="1121" width="22" height="22" fill="none"/>
   <circle id="circle889" cx="30.445" cy="1132" r="9" fill="#182629" fill-opacity=".99507" fill-rule="evenodd"/>
   <circle id="circle891" cx="30.445" cy="1132" r="8.5" fill="url(#linearGradient894)" fill-rule="evenodd"/>
  </g>
  <g id="vertical-slider-hover" transform="translate(-32.416 -4.1251)">
   <rect id="rect897" x="55.901" y="1121.2" width="22" height="22" fill="none"/>
   <circle id="circle899" cx="66.901" cy="1132.2" r="9.5" fill="url(#linearGradient890)" fill-rule="evenodd"/>
  </g>
  <g id="vertical-slider-focus" transform="translate(-58.503 -4.0486)">
   <rect id="rect905" x="103.99" y="1121.1" width="22" height="22" fill="none"/>
   <circle id="circle907" cx="114.99" cy="1132.1" r="10" fill="#4b7a29" fill-opacity=".54187" fill-rule="evenodd"/>
  </g>
 </g>
</svg>
