<?xml version="1.0" encoding="UTF-8"?>
<!-- Created with Inkscape (http://www.inkscape.org/) -->
<svg id="svg8" width="112" height="112" version="1.1" viewBox="0 0 112 112" xmlns="http://www.w3.org/2000/svg" xmlns:cc="http://creativecommons.org/ns#" xmlns:dc="http://purl.org/dc/elements/1.1/" xmlns:rdf="http://www.w3.org/1999/02/22-rdf-syntax-ns#">
 <metadata id="metadata5">
  <rdf:RDF>
   <cc:Work rdf:about="">
    <dc:format>image/svg+xml</dc:format>
    <dc:type rdf:resource="http://purl.org/dc/dcmitype/StillImage"/>
    <dc:title/>
   </cc:Work>
  </rdf:RDF>
 </metadata>
 <g id="layer1" transform="translate(1.8929 -1061.1)" fill-rule="evenodd">
  <rect id="south-active-tab-center" x="14.107" y="1077.1" width="16" height="16" fill="#927f53"/>
  <rect id="south-active-tab-left" x="6.1071" y="1077.1" width="8" height="16" fill="#927f53"/>
  <rect id="south-active-tab-right" x="30.107" y="1077.1" width="8" height="16" fill="#927f53"/>
  <rect id="south-active-tab-bottom" transform="rotate(90)" x="1093.1" y="-30.107" width="8" height="16" fill="#927f53"/>
  <rect id="south-active-tab-bottomleft" x="6.1071" y="1093.1" width="8" height="8" fill="#927f53"/>
  <rect id="south-active-tab-bottomright" x="30.107" y="1093.1" width="8" height="8" fill="#927f53"/>
  <rect id="south-active-tab-hint-right-margin" x="32.107" y="1077.1" width="6" height="2" fill="#35535b"/>
  <rect id="south-active-tab-hint-left-margin" x="6.1071" y="1091.1" width="6" height="2" fill="#35535b"/>
  <rect id="south-active-tab-hint-bottom-margin" transform="rotate(90)" x="1095.1" y="-30.107" width="6" height="2" fill="#35535b"/>
  <g id="south-active-tab-top" transform="translate(2.4107 -51.321)">
   <rect id="rect1680" transform="rotate(90)" x="1120.4" y="-27.696" width="8" height="16" fill="#927f53"/>
   <rect id="rect1682" x="11.696" y="1120.4" width="16" height="1" fill="#9e8c62"/>
  </g>
  <rect id="south-active-tab-hint-top-margin" transform="rotate(90)" x="1069.1" y="-16.107" width="6" height="2" fill="#35535b"/>
  <rect id="north-active-tab-center" x="78.107" y="1077.1" width="16" height="16" fill="#927f53"/>
  <rect id="north-active-tab-left" x="70.107" y="1077.1" width="8" height="16" fill="#927f53"/>
  <rect id="north-active-tab-right" x="94.107" y="1077.1" width="8" height="16" fill="#927f53"/>
  <rect id="north-active-tab-bottom" transform="rotate(90)" x="1093.1" y="-94.107" width="8" height="16" fill="#927f53"/>
  <rect id="north-active-tab-bottomleft" x="70.107" y="1093.1" width="8" height="8" fill="#927f53"/>
  <rect id="north-active-tab-bottomright" x="94.107" y="1093.1" width="8" height="8" fill="#927f53"/>
  <rect id="north-active-tab-hint-right-margin" x="96.107" y="1077.1" width="6" height="2" fill="#35535b"/>
  <rect id="north-active-tab-hint-left-margin" x="70.107" y="1091.1" width="6" height="2" fill="#35535b"/>
  <rect id="north-active-tab-hint-bottom-margin" transform="rotate(90)" x="1095.1" y="-94.107" width="6" height="2" fill="#35535b"/>
  <g id="north-active-tab-top" transform="translate(66.411 -51.321)">
   <rect id="rect1698" transform="rotate(90)" x="1120.4" y="-27.696" width="8" height="16" fill="#927f53"/>
   <rect id="rect1700" x="11.696" y="1120.4" width="16" height="1" fill="#9e8c62"/>
  </g>
  <rect id="north-active-tab-hint-top-margin" transform="rotate(90)" x="1069.1" y="-80.107" width="6" height="2" fill="#35535b"/>
  <rect id="west-active-tab-center" x="14.107" y="1141.1" width="16" height="16" fill="#927f53"/>
  <rect id="west-active-tab-left" x="6.1071" y="1141.1" width="8" height="16" fill="#927f53"/>
  <rect id="west-active-tab-right" x="30.107" y="1141.1" width="8" height="16" fill="#927f53"/>
  <rect id="west-active-tab-bottom" transform="rotate(90)" x="1157.1" y="-30.107" width="8" height="16" fill="#927f53"/>
  <rect id="west-active-tab-bottomleft" x="6.1071" y="1157.1" width="8" height="8" fill="#927f53"/>
  <rect id="west-active-tab-bottomright" x="30.107" y="1157.1" width="8" height="8" fill="#927f53"/>
  <rect id="west-active-tab-hint-right-margin" x="32.107" y="1141.1" width="6" height="2" fill="#35535b"/>
  <rect id="west-active-tab-hint-left-margin" x="6.1071" y="1155.1" width="6" height="2" fill="#35535b"/>
  <rect id="west-active-tab-hint-bottom-margin" transform="rotate(90)" x="1159.1" y="-30.107" width="6" height="2" fill="#35535b"/>
  <rect id="west-active-tab-hint-top-margin" transform="rotate(90)" x="1122.5" y="-2.8929" width="6" height="2" fill="#35535b"/>
  <rect id="east-active-tab-center" x="78.107" y="1141.1" width="16" height="16" fill="#927f53"/>
  <rect id="east-active-tab-left" x="70.107" y="1141.1" width="8" height="16" fill="#927f53"/>
  <rect id="east-active-tab-right" x="94.107" y="1141.1" width="8" height="16" fill="#927f53"/>
  <rect id="east-active-tab-top" transform="rotate(90)" x="1133.1" y="-94.107" width="8" height="16" fill="#927f53"/>
  <rect id="east-active-tab-bottom" transform="rotate(90)" x="1157.1" y="-94.107" width="8" height="16" fill="#927f53"/>
  <rect id="east-active-tab-bottomleft" x="70.107" y="1157.1" width="8" height="8" fill="#927f53"/>
  <rect id="east-active-tab-topleft" x="70.107" y="1133.1" width="8" height="8" fill="#927f53"/>
  <rect id="east-active-tab-topright" x="94.107" y="1133.1" width="8" height="8" fill="#927f53"/>
  <rect id="east-active-tab-bottomright" x="94.107" y="1157.1" width="8" height="8" fill="#927f53"/>
  <rect id="east-active-tab-hint-right-margin" x="96.107" y="1141.1" width="6" height="2" fill="#35535b"/>
  <rect id="east-active-tab-hint-left-margin" x="70.107" y="1155.1" width="6" height="2" fill="#35535b"/>
  <rect id="east-active-tab-hint-bottom-margin" transform="rotate(90)" x="1159.1" y="-94.107" width="6" height="2" fill="#35535b"/>
  <rect id="east-active-tab-hint-top-margin" transform="rotate(90)" x="1133.1" y="-80.107" width="6" height="2" fill="#35535b"/>
  <g id="west-active-tab-top" transform="translate(2.4107 12.679)">
   <rect id="rect1672" transform="rotate(90)" x="1120.4" y="-27.696" width="8" height="16" fill="#927f53"/>
   <rect id="rect1052" x="11.696" y="1120.4" width="16" height="1" fill="#9e8c62"/>
  </g>
  <g id="g1666" transform="translate(18.661 3.9286)">
   <rect id="west-active-tab-topleft" x="-12.554" y="1129.1" width="8" height="8" fill="#927f53"/>
   <rect id="rect1662" x="-12.554" y="1129.1" width="8" height="1" fill="#9e8c62"/>
  </g>
  <g id="west-active-tab-topright" transform="translate(42.661 3.9286)">
   <rect id="rect1674" x="-12.554" y="1129.1" width="8" height="8" fill="#927f53"/>
   <rect id="rect1676" x="-12.554" y="1129.1" width="8" height="1" fill="#9e8c62"/>
  </g>
  <g id="south-active-tab-topleft" transform="translate(18.661 -60.071)">
   <rect id="rect1686" x="-12.554" y="1129.1" width="8" height="8" fill="#927f53"/>
   <rect id="rect1688" x="-12.554" y="1129.1" width="8" height="1" fill="#9e8c62"/>
  </g>
  <g id="south-active-tab-topright" transform="translate(42.661 -60.071)">
   <rect id="rect1692" x="-12.554" y="1129.1" width="8" height="8" fill="#927f53"/>
   <rect id="rect1694" x="-12.554" y="1129.1" width="8" height="1" fill="#9e8c62"/>
  </g>
  <g id="north-active-tab-topleft" transform="translate(82.661 -60.071)">
   <rect id="rect1704" x="-12.554" y="1129.1" width="8" height="8" fill="#927f53"/>
   <rect id="rect1706" x="-12.554" y="1129.1" width="8" height="1" fill="#9e8c62"/>
  </g>
  <g id="north-active-tab-topright" transform="translate(106.66 -60.071)">
   <rect id="rect1710" x="-12.554" y="1129.1" width="8" height="8" fill="#927f53"/>
   <rect id="rect1712" x="-12.554" y="1129.1" width="8" height="1" fill="#9e8c62"/>
  </g>
 </g>
</svg>
