<?xml version="1.0" encoding="UTF-8"?>
<!-- Created with Inkscape (http://www.inkscape.org/) -->
<svg id="svg8" width="113.6" height="45.147" version="1.1" viewBox="0 0 113.6 45.147" xmlns="http://www.w3.org/2000/svg" xmlns:cc="http://creativecommons.org/ns#" xmlns:dc="http://purl.org/dc/elements/1.1/" xmlns:osb="http://www.openswatchbook.org/uri/2009/osb" xmlns:rdf="http://www.w3.org/1999/02/22-rdf-syntax-ns#">
 <metadata id="metadata5">
  <rdf:RDF>
   <cc:Work rdf:about="">
    <dc:format>image/svg+xml</dc:format>
    <dc:type rdf:resource="http://purl.org/dc/dcmitype/StillImage"/>
    <dc:title/>
   </cc:Work>
  </rdf:RDF>
 </metadata>
 <g id="layer1" transform="translate(-8.9107 -1008.5)">
  <rect id="normal-right" x="22.911" y="1018.5" width="4" height="4" fill="#4b6871" fill-rule="evenodd"/>
  <rect id="normal-center" x="18.911" y="1018.5" width="4" height="4" fill="#4b6871" fill-rule="evenodd"/>
  <rect id="normal-left" x="14.911" y="1018.5" width="4" height="4" fill="#4b6871" fill-rule="evenodd"/>
  <rect id="normal-bottomleft" x="14.911" y="1022.5" width="4" height="4" fill="#4b6871" fill-rule="evenodd"/>
  <rect id="normal-bottom" x="18.911" y="1022.5" width="4" height="4" fill="#4b6871" fill-rule="evenodd"/>
  <rect id="normal-bottomright" x="22.911" y="1022.5" width="4" height="4" fill="#4b6871" fill-rule="evenodd"/>
  <rect id="focus-center" x="38.71" y="1018.5" width="4" height="4" fill="#927f53" fill-rule="evenodd"/>
  <rect id="minimized-right" x="22.911" y="1037.6" width="4" height="4" fill="#274249" fill-rule="evenodd"/>
  <rect id="minimized-center" x="18.911" y="1037.6" width="4" height="4" fill="#274249" fill-rule="evenodd"/>
  <rect id="minimized-left" x="14.911" y="1037.6" width="4" height="4" fill="#274249" fill-rule="evenodd"/>
  <rect id="minimized-bottomleft" x="14.911" y="1041.6" width="4" height="4" fill="#274249" fill-rule="evenodd"/>
  <rect id="minimized-bottom" x="18.911" y="1041.6" width="4" height="4" fill="#274249" fill-rule="evenodd"/>
  <rect id="minimized-bottomright" x="22.911" y="1041.6" width="4" height="4" fill="#274249" fill-rule="evenodd"/>
  <g id="g916" transform="translate(.37947 2.4064)" fill="#927f53" fill-rule="evenodd">
   <rect id="hover-topleft" x="34.33" y="1031.2" width="4" height="4"/>
   <rect id="hover-top" x="38.33" y="1031.2" width="4" height="4"/>
   <rect id="hover-topright" x="42.33" y="1031.2" width="4" height="4"/>
   <rect id="hover-right" x="42.33" y="1035.2" width="4" height="4"/>
   <rect id="hover-center" x="38.33" y="1035.2" width="4" height="4"/>
   <rect id="hover-left" x="34.33" y="1035.2" width="4" height="4"/>
   <rect id="hover-bottomleft" x="34.33" y="1039.2" width="4" height="4"/>
   <rect id="hover-bottom" x="38.33" y="1039.2" width="4" height="4"/>
   <rect id="hover-bottomright" x="42.33" y="1039.2" width="4" height="4"/>
  </g>
  <rect id="attention-topleft" x="54.509" y="1014.5" width="4" height="4" fill="#994e4b" fill-rule="evenodd"/>
  <rect id="attention-top" x="58.509" y="1014.5" width="4" height="4" fill="#994e4b" fill-rule="evenodd"/>
  <rect id="attention-topright" x="62.509" y="1014.5" width="4" height="4" fill="#994e4b" fill-rule="evenodd"/>
  <rect id="attention-right" x="62.509" y="1018.5" width="4" height="4" fill="#994e4b" fill-rule="evenodd"/>
  <rect id="attention-center" x="58.509" y="1018.5" width="4" height="4" fill="#994e4b" fill-rule="evenodd"/>
  <rect id="attention-left" x="54.509" y="1018.5" width="4" height="4" fill="#994e4b" fill-rule="evenodd"/>
  <rect id="attention-bottomleft" x="54.509" y="1022.5" width="4" height="4" fill="#994e4b" fill-rule="evenodd"/>
  <rect id="attention-bottom" x="58.509" y="1022.5" width="4" height="4" fill="#994e4b" fill-rule="evenodd"/>
  <rect id="attention-bottomright" x="62.509" y="1022.5" width="4" height="4" fill="#994e4b" fill-rule="evenodd"/>
  <g id="g1468" fill="#4b7154" fill-rule="evenodd">
   <rect id="progress-topleft" x="54.509" y="1033.6" width="4" height="4"/>
   <rect id="progress-top" x="58.509" y="1033.6" width="4" height="4"/>
   <rect id="progress-topright" x="62.509" y="1033.6" width="4" height="4"/>
   <rect id="progress-right" x="62.509" y="1037.6" width="4" height="4"/>
   <rect id="progress-center" x="58.509" y="1037.6" width="4" height="4"/>
   <rect id="progress-left" x="54.509" y="1037.6" width="4" height="4"/>
   <rect id="progress-bottomleft" x="54.509" y="1041.6" width="4" height="4"/>
   <rect id="progress-bottom" x="58.509" y="1041.6" width="4" height="4"/>
   <rect id="progress-bottomright" x="62.509" y="1041.6" width="4" height="4"/>
  </g>
  <g id="focus-top" transform="translate(-1.5303 10.766)" fill-rule="evenodd">
   <rect id="rect1060" x="40.24" y="1003.7" width="4" height="4" fill="#927f53"/>
   <rect id="rect1052" x="40.24" y="1003.7" width="4" height="1" fill="#a6966f"/>
  </g>
  <g id="focus-topright" transform="translate(2.4697 10.766)" fill-rule="evenodd">
   <rect id="rect948" x="40.24" y="1003.7" width="4" height="4" fill="#927f53"/>
   <rect id="rect950" x="40.24" y="1003.7" width="4" height="1" fill="#a6966f"/>
  </g>
  <g id="focus-topleft" transform="translate(-5.5303 10.766)" fill-rule="evenodd">
   <rect id="rect954" x="40.24" y="1003.7" width="4" height="4" fill="#927f53"/>
   <rect id="rect956" x="40.24" y="1003.7" width="4" height="1" fill="#a6966f"/>
  </g>
  <rect id="focus-left" x="34.71" y="1018.5" width="4" height="4" fill="#927f53" fill-rule="evenodd"/>
  <rect id="focus-right" x="42.71" y="1018.5" width="4" height="4" fill="#927f53" fill-rule="evenodd"/>
  <rect id="focus-bottomright" x="42.71" y="1022.5" width="4" height="4" fill="#927f53" fill-rule="evenodd"/>
  <rect id="focus-bottom" x="38.71" y="1022.5" width="4" height="4" fill="#927f53" fill-rule="evenodd"/>
  <rect id="focus-bottomleft" x="34.71" y="1022.5" width="4" height="4" fill="#927f53" fill-rule="evenodd"/>
  <g id="minimized-topleft" transform="translate(4.8978 1.8794)" fill-rule="evenodd">
   <rect id="rect1711" x="10.013" y="1031.8" width="4" height="4" fill="#274249"/>
   <rect id="rect1713" x="10.013" y="1031.8" width="4" height="1" fill="#1b3a40"/>
  </g>
  <g id="minimized-top" transform="translate(8.8978 1.8794)" fill-rule="evenodd">
   <rect id="rect1723" x="10.013" y="1031.8" width="4" height="4" fill="#274249"/>
   <rect id="rect1725" x="10.013" y="1031.8" width="4" height="1" fill="#1b3a40"/>
  </g>
  <g id="minimized-topright" transform="translate(12.898 1.8794)" fill-rule="evenodd">
   <rect id="rect1729" x="10.013" y="1031.8" width="4" height="4" fill="#274249"/>
   <rect id="rect1731" x="10.013" y="1031.8" width="4" height="1" fill="#1b3a40"/>
  </g>
  <g id="group-expander-bottom">
   <rect id="rect886" x="80.509" y="1031.6" width="16" height="16" fill="none"/>
   <rect id="rect880" x="80.509" y="1043.6" width="4" height="2" fill="#dcebee" fill-rule="evenodd"/>
   <rect id="rect920" x="86.509" y="1043.6" width="4" height="2" fill="#dcebee" fill-rule="evenodd"/>
   <rect id="rect922" x="92.509" y="1043.6" width="4" height="2" fill="#dcebee" fill-rule="evenodd"/>
  </g>
  <g id="group-expander-top" transform="matrix(1 0 0 -1 0 2063.3)">
   <rect id="rect3659" x="80.509" y="1031.6" width="16" height="16" fill="none"/>
   <rect id="rect3661" x="80.509" y="1043.6" width="4" height="2" fill="#dcebee" fill-rule="evenodd"/>
   <rect id="rect3663" x="86.509" y="1043.6" width="4" height="2" fill="#dcebee" fill-rule="evenodd"/>
   <rect id="rect3665" x="92.509" y="1043.6" width="4" height="2" fill="#dcebee" fill-rule="evenodd"/>
  </g>
  <g id="group-expander-right" transform="rotate(-90 96.509 1031.6)">
   <rect id="rect3669" x="80.509" y="1031.6" width="16" height="16" fill="none"/>
   <rect id="rect3671" x="80.509" y="1043.6" width="4" height="2" fill="#dcebee" fill-rule="evenodd"/>
   <rect id="rect3673" x="86.509" y="1043.6" width="4" height="2" fill="#dcebee" fill-rule="evenodd"/>
   <rect id="rect3675" x="92.509" y="1043.6" width="4" height="2" fill="#dcebee" fill-rule="evenodd"/>
  </g>
  <g id="group-expander-left" transform="matrix(0 -1 -1 0 1144.2 1112.2)">
   <rect id="rect3679" x="80.509" y="1031.6" width="16" height="16" fill="none"/>
   <rect id="rect3681" x="80.509" y="1043.6" width="4" height="2" fill="#dcebee" fill-rule="evenodd"/>
   <rect id="rect3683" x="86.509" y="1043.6" width="4" height="2" fill="#dcebee" fill-rule="evenodd"/>
   <rect id="rect3685" x="92.509" y="1043.6" width="4" height="2" fill="#dcebee" fill-rule="evenodd"/>
  </g>
  <g id="normal-topleft" fill-rule="evenodd">
   <rect id="rect940" x="14.911" y="1014.5" width="4" height="4" fill="#4b6871"/>
   <rect id="rect934" x="14.911" y="1014.5" width="4" height="1" fill="#5e828d"/>
  </g>
  <g id="normal-top" transform="translate(4)" fill-rule="evenodd">
   <rect id="rect942" x="14.911" y="1014.5" width="4" height="4" fill="#4b6871"/>
   <rect id="rect944" x="14.911" y="1014.5" width="4" height="1" fill="#5e828d"/>
  </g>
  <g id="normal-topright" transform="translate(8)" fill-rule="evenodd">
   <rect id="rect949" x="14.911" y="1014.5" width="4" height="4" fill="#4b6871"/>
   <rect id="rect951" x="14.911" y="1014.5" width="4" height="1" fill="#5e828d"/>
  </g>
 </g>
</svg>
