<?xml version="1.0" encoding="UTF-8"?>
<!-- Created with Inkscape (http://www.inkscape.org/) -->
<svg id="svg8" width="114.16" height="54" version="1.1" viewBox="0 0 114.16 54" xmlns="http://www.w3.org/2000/svg" xmlns:cc="http://creativecommons.org/ns#" xmlns:dc="http://purl.org/dc/elements/1.1/" xmlns:rdf="http://www.w3.org/1999/02/22-rdf-syntax-ns#" xmlns:xlink="http://www.w3.org/1999/xlink">
 <defs id="defs2">
  <linearGradient id="linearGradient915" x1="1063.1" x2="1069.5" y1="-88.268" y2="-88.268" gradientTransform="rotate(180 596.4 -30.287)" gradientUnits="userSpaceOnUse" xlink:href="#linearGradient884"/>
  <linearGradient id="linearGradient884">
   <stop id="stop880" stop-opacity="0" offset="0"/>
   <stop id="stop882" stop-opacity=".64463" offset="1"/>
  </linearGradient>
  <radialGradient id="radialGradient878" cx="103.27" cy="1070.1" r="7" gradientTransform="matrix(.85714 0 0 .85714 20.185 141.89)" gradientUnits="userSpaceOnUse" xlink:href="#linearGradient876"/>
  <linearGradient id="linearGradient876">
   <stop id="stop872" stop-opacity=".64463" offset="0"/>
   <stop id="stop874" stop-opacity="0" offset="1"/>
  </linearGradient>
  <linearGradient id="linearGradient936" x1="1063.1" x2="1069.5" y1="-88.268" y2="-88.268" gradientTransform="matrix(0 1 -.5 0 65.866 -11.116)" gradientUnits="userSpaceOnUse" xlink:href="#linearGradient884"/>
 </defs>
 <metadata id="metadata5">
  <rdf:RDF>
   <cc:Work rdf:about="">
    <dc:format>image/svg+xml</dc:format>
    <dc:type rdf:resource="http://purl.org/dc/dcmitype/StillImage"/>
    <dc:title/>
   </cc:Work>
  </rdf:RDF>
 </metadata>
 <g id="layer1" transform="translate(-1.1071 -1058.1)">
  <g id="g934" transform="translate(0 3.0578e-5)" fill-rule="evenodd">
   <rect id="center" x="14.107" y="1077.1" width="16" height="16" fill="#35535b"/>
   <rect id="left" x="6.1071" y="1077.1" width="8" height="16" fill="#35535b"/>
   <rect id="right" x="30.107" y="1077.1" width="8" height="16" fill="#35535b"/>
   <rect id="top" transform="rotate(90)" x="1069.1" y="-30.107" width="8" height="16" fill="#35535b"/>
   <rect id="bottom" transform="rotate(90)" x="1093.1" y="-30.107" width="8" height="16" fill="#35535b"/>
   <rect id="bottomleft" x="6.1071" y="1093.1" width="8" height="8" fill="#35535b"/>
   <rect id="topleft" x="6.1071" y="1069.1" width="8" height="8" fill="#35535b"/>
   <rect id="topright" x="30.107" y="1069.1" width="8" height="8" fill="#35535b"/>
   <rect id="bottomright" x="30.107" y="1093.1" width="8" height="8" fill="#35535b"/>
   <g id="g2334" fill="#927f53">
    <rect id="hint-right-margin" x="30.107" y="1077.1" width="8" height="2"/>
    <rect id="hint-left-margin" x="6.1071" y="1093.1" width="8" height="2"/>
    <rect id="hint-bottom-margin" transform="rotate(90)" x="1093.1" y="-30.107" width="8" height="2"/>
    <rect id="hint-top-margin" transform="rotate(90)" x="1069.1" y="-16.107" width="8" height="2"/>
   </g>
  </g>
  <g id="g946" transform="translate(-2.5178 .035788)">
   <g id="shadow-bottom" transform="rotate(90 98.906 1075.1)">
    <rect id="rect909" x="116.85" y="1077.8" width="14" height="16" fill="none"/>
    <path id="path911" transform="translate(1.1071 1058.1)" d="m123.74 19.695v16h6v-16z" fill="url(#linearGradient915)" fill-rule="evenodd"/>
   </g>
   <g id="shadow-top" transform="rotate(-90 98.211 1095.7)">
    <rect id="rect900" x="116.85" y="1077.8" width="14" height="16" fill="none"/>
    <path id="path902" transform="translate(1.1071 1058.1)" d="m123.74 19.695v16h6v-16z" fill="url(#linearGradient915)" fill-rule="evenodd"/>
   </g>
   <g id="shadow-left" transform="matrix(-1 0 0 1 197.12 -.6953)">
    <rect id="rect892" x="116.85" y="1077.8" width="14" height="16" fill="none"/>
    <path id="path894" transform="translate(1.1071 1058.1)" d="m123.74 19.695v16h6v-16z" fill="url(#linearGradient915)" fill-rule="evenodd"/>
   </g>
   <g id="shadow-right" transform="translate(-20.581 -.69535)">
    <rect id="rect895" x="116.85" y="1077.8" width="14" height="16" fill="none"/>
    <path id="rect929" transform="translate(1.1071 1058.1)" d="m123.74 19.695v16h6v-16z" fill="url(#linearGradient915)" fill-rule="evenodd"/>
   </g>
   <rect id="shadow-center" x="80.268" y="1077.1" width="16" height="16" fill="none" opacity=".2"/>
   <rect id="shadow-hint-top-margin" transform="rotate(90)" x="1063.1" y="-82.268" width="6" height="2" fill="#fdfcfb" fill-rule="evenodd"/>
   <rect id="shadow-hint-left-margin" x="66.268" y="1091.1" width="6" height="2" fill="#fff" fill-rule="evenodd"/>
   <rect id="shadow-hint-right-margin" x="104.27" y="1077.1" width="6" height="2" fill="#fff" fill-rule="evenodd"/>
   <rect id="shadow-hint-bottom-margin" transform="rotate(90)" x="1101.1" y="-96.268" width="6" height="2" fill="#fff" fill-rule="evenodd"/>
   <g id="shadow-topright" transform="translate(-9.7321 11.116)">
    <g id="g954" transform="translate(5.2989 -1.1402)">
     <path id="path919" d="m108.7 1053.1v6h6v-6z" fill="url(#radialGradient878)" fill-rule="evenodd"/>
     <g id="g922" transform="matrix(1 0 0 .5 -16.148 520.2)">
      <rect id="rect917" x="116.85" y="1077.8" width="14" height="16" fill="none"/>
      <path id="path920" transform="translate(1.1071 1058.1)" d="m123.74 19.695v16h6v-16z" fill="url(#linearGradient915)" fill-rule="evenodd"/>
     </g>
    </g>
    <path id="path932" d="m106 1057.9h8v-6h-8z" fill="url(#linearGradient936)" fill-rule="evenodd"/>
   </g>
   <g id="shadow-topleft" transform="matrix(-1 0 0 1 186.27 11.116)">
    <g id="g904" transform="translate(5.2989 -1.1402)">
     <path id="path896" d="m108.7 1053.1v6h6v-6z" fill="url(#radialGradient878)" fill-rule="evenodd"/>
     <g id="g902" transform="matrix(1 0 0 .5 -16.148 520.2)">
      <rect id="rect898" x="116.85" y="1077.8" width="14" height="16" fill="none"/>
      <path id="path900" transform="translate(1.1071 1058.1)" d="m123.74 19.695v16h6v-16z" fill="url(#linearGradient915)" fill-rule="evenodd"/>
     </g>
    </g>
    <path id="path906" d="m106 1057.9h8v-6h-8z" fill="url(#linearGradient936)" fill-rule="evenodd"/>
   </g>
   <g id="shadow-bottomright" transform="matrix(1 0 0 -1 -9.7322 2159)">
    <g id="g925" transform="translate(5.2989 -1.1402)">
     <path id="path916" d="m108.7 1053.1v6h6v-6z" fill="url(#radialGradient878)" fill-rule="evenodd"/>
     <g id="g923" transform="matrix(1 0 0 .5 -16.148 520.2)">
      <rect id="rect918" x="116.85" y="1077.8" width="14" height="16" fill="none"/>
      <path id="path921" transform="translate(1.1071 1058.1)" d="m123.74 19.695v16h6v-16z" fill="url(#linearGradient915)" fill-rule="evenodd"/>
     </g>
    </g>
    <path id="path927" d="m106 1057.9h8v-6h-8z" fill="url(#linearGradient936)" fill-rule="evenodd"/>
   </g>
   <g id="shadow-bottomleft" transform="rotate(180 93.134 1079.5)">
    <g id="g945" transform="translate(5.2989 -1.1402)">
     <path id="path937" d="m108.7 1053.1v6h6v-6z" fill="url(#radialGradient878)" fill-rule="evenodd"/>
     <g id="g943" transform="matrix(1 0 0 .5 -16.148 520.2)">
      <rect id="rect939" x="116.85" y="1077.8" width="14" height="16" fill="none"/>
      <path id="path941" transform="translate(1.1071 1058.1)" d="m123.74 19.695v16h6v-16z" fill="url(#linearGradient915)" fill-rule="evenodd"/>
     </g>
    </g>
    <path id="path947" d="m106 1057.9h8v-6h-8z" fill="url(#linearGradient936)" fill-rule="evenodd"/>
   </g>
  </g>
 </g>
</svg>
