<?xml version="1.0" encoding="UTF-8"?>
<!-- Created with Inkscape (http://www.inkscape.org/) -->
<svg id="svg951" width="109.21" height="48" version="1.1" viewBox="0 0 109.21 48" xmlns="http://www.w3.org/2000/svg" xmlns:cc="http://creativecommons.org/ns#" xmlns:dc="http://purl.org/dc/elements/1.1/" xmlns:rdf="http://www.w3.org/1999/02/22-rdf-syntax-ns#">
 <metadata id="metadata948">
  <rdf:RDF>
   <cc:Work rdf:about="">
    <dc:format>image/svg+xml</dc:format>
    <dc:type rdf:resource="http://purl.org/dc/dcmitype/StillImage"/>
    <dc:title/>
   </cc:Work>
  </rdf:RDF>
 </metadata>
 <g id="layer1" transform="translate(-.73214 -1057.7)" fill-rule="evenodd">
  <rect id="hover-center" x="16.732" y="1073.7" width="16" height="16" fill="#927f53"/>
  <rect id="hover-left" x="8.7321" y="1073.7" width="8" height="16" fill="#927f53"/>
  <rect id="hover-right" x="32.732" y="1073.7" width="8" height="16" fill="#927f53"/>
  <rect id="hover-top" transform="rotate(90)" x="1065.7" y="-32.732" width="8" height="16" fill="#927f53"/>
  <rect id="hover-bottom" transform="rotate(90)" x="1089.7" y="-32.732" width="8" height="16" fill="#927f53"/>
  <rect id="hover-bottomleft" x="8.7321" y="1089.7" width="8" height="8" fill="#927f53"/>
  <rect id="hover-topleft" x="8.7321" y="1065.7" width="8" height="8" fill="#927f53"/>
  <rect id="hover-topright" x="32.732" y="1065.7" width="8" height="8" fill="#927f53"/>
  <rect id="hover-bottomright" x="32.732" y="1089.7" width="8" height="8" fill="#927f53"/>
  <rect id="hover-hint-right-margin" x="34.732" y="1073.7" width="6" height="2" fill="#35535b"/>
  <rect id="hover-hint-left-margin" x="8.7321" y="1087.7" width="6" height="2" fill="#35535b"/>
  <rect id="hover-hint-bottom-margin" transform="rotate(90)" x="1091.7" y="-32.732" width="6" height="2" fill="#35535b"/>
  <rect id="hover-hint-top-margin" transform="rotate(90)" x="1065.7" y="-18.732" width="6" height="2" fill="#35535b"/>
  <g id="g874" transform="translate(-21.469 2.2766)">
   <rect id="selected-center" x="99.411" y="1071.4" width="16" height="16" fill="#927f53"/>
   <rect id="selected-left" x="91.411" y="1071.4" width="8" height="16" fill="#927f53"/>
   <rect id="selected-right" x="115.41" y="1071.4" width="8" height="16" fill="#927f53"/>
   <rect id="selected-top" transform="rotate(90)" x="1063.4" y="-115.41" width="8" height="16" fill="#927f53"/>
   <rect id="selected-bottom" transform="rotate(90)" x="1087.4" y="-115.41" width="8" height="16" fill="#927f53"/>
   <rect id="selected-bottomleft" x="91.411" y="1087.4" width="8" height="8" fill="#927f53"/>
   <rect id="selected-topleft" x="91.411" y="1063.4" width="8" height="8" fill="#927f53"/>
   <rect id="selected-topright" x="115.41" y="1063.4" width="8" height="8" fill="#927f53"/>
   <rect id="selected-bottomright" x="115.41" y="1087.4" width="8" height="8" fill="#927f53"/>
   <rect id="selected-hint-right-margin" x="115.41" y="1071.4" width="8" height="2" fill="#35535b"/>
   <rect id="selected-hint-left-margin" x="91.411" y="1085.4" width="8" height="2" fill="#35535b"/>
   <rect id="selected-hint-bottom-margin" transform="rotate(90)" x="1087.4" y="-115.41" width="8" height="2" fill="#35535b"/>
   <rect id="selected-hint-top-margin" transform="rotate(90)" x="1063.4" y="-101.41" width="8" height="2" fill="#35535b"/>
  </g>
 </g>
</svg>
