<?xml version="1.0" encoding="UTF-8" standalone="no"?>
<!-- Created with Inkscape (http://www.inkscape.org/) -->

<svg
   xmlns:dc="http://purl.org/dc/elements/1.1/"
   xmlns:cc="http://creativecommons.org/ns#"
   xmlns:rdf="http://www.w3.org/1999/02/22-rdf-syntax-ns#"
   xmlns:svg="http://www.w3.org/2000/svg"
   xmlns="http://www.w3.org/2000/svg"
   xmlns:sodipodi="http://sodipodi.sourceforge.net/DTD/sodipodi-0.dtd"
   xmlns:inkscape="http://www.inkscape.org/namespaces/inkscape"
   width="103.99998"
   height="81.999771"
   id="svg7229"
   sodipodi:version="0.32"
   inkscape:version="0.92.4 (5da689c313, 2019-01-14)"
   version="1.0"
   sodipodi:docname="media.svg"
   inkscape:output_extension="org.inkscape.output.svgz.inkscape">
  <defs
     id="defs7231">
    <style
       id="current-color-scheme"
       type="text/css">
      .ColorScheme-Text {
        color:#31363b;
      }
      .ColorScheme-Background{
        color:#eff0f1;
      }
      .ColorScheme-ViewText {
        color:#31363b;
      }
      .ColorScheme-ViewBackground{
        color:#ffffff;
      }
      .ColorScheme-ViewHover {
        color:#000000;
      }
      .ColorScheme-ViewFocus{
        color:#5a5a5a;
      }
      .ColorScheme-ButtonText {
        color:#31363b;
      }
      .ColorScheme-ButtonBackground{
        color:#E9E8E8;
      }
      .ColorScheme-ButtonHover {
        color:#1489ff;
      }
      .ColorScheme-ButtonFocus{
        color:#2B74C7;
      }
</style>
  </defs>
  <sodipodi:namedview
     id="base"
     pagecolor="#aaaaaa"
     bordercolor="#666666"
     borderopacity="1.0"
     inkscape:pageopacity="0.13333333"
     inkscape:pageshadow="2"
     inkscape:zoom="6.4016033"
     inkscape:cx="26.843783"
     inkscape:cy="36.480204"
     inkscape:document-units="px"
     inkscape:current-layer="layer1"
     showgrid="false"
     inkscape:window-width="1519"
     inkscape:window-height="987"
     inkscape:window-x="151"
     inkscape:window-y="89"
     showguides="true"
     inkscape:guide-bbox="true"
     gridtolerance="6"
     inkscape:window-maximized="0"
     inkscape:snap-bbox="true"
     inkscape:pagecheckerboard="true"
     fit-margin-top="8"
     fit-margin-left="8"
     fit-margin-right="8"
     fit-margin-bottom="8"
     inkscape:showpageshadow="false">
    <inkscape:grid
       type="xygrid"
       id="grid7245"
       visible="true"
       enabled="true"
       empspacing="4"
       snapvisiblegridlinesonly="true"
       originx="-29.428273"
       originy="-14.456401" />
  </sodipodi:namedview>
  <metadata
     id="metadata7234">
    <rdf:RDF>
      <cc:Work
         rdf:about="">
        <dc:format>image/svg+xml</dc:format>
        <dc:type
           rdf:resource="http://purl.org/dc/dcmitype/StillImage" />
        <dc:title></dc:title>
      </cc:Work>
    </rdf:RDF>
  </metadata>
  <g
     inkscape:label="Camada 1"
     inkscape:groupmode="layer"
     id="layer1"
     transform="translate(-243.96399,-330.04886)">
    <g
       id="media-skip-forward"
       transform="translate(79.072316,-16.985471)">
      <rect
         style="opacity:0.01000001;fill:#ed1515;fill-opacity:0.00392157;stroke:none;stroke-width:1.49997652"
         id="rect3003-7"
         width="22"
         height="21.99991"
         x="238.89166"
         y="355.03433" />
      <g
         transform="translate(-0.11348322,-0.38063517)"
         id="g1492">
        <path
           transform="matrix(0.79461048,0,0,0.77743096,73.361734,66.613055)"
           d="m 214.66797,379.25195 a 0.75285113,0.75285113 0 0 0 -0.76953,0.75196 v 11.25781 a 0.75285113,0.75285113 0 0 0 1.1289,0.65234 l 9.75,-5.6289 a 0.75285113,0.75285113 0 0 0 0,-1.30469 l -9.75,-5.62891 a 0.75285113,0.75285113 0 0 0 -0.35937,-0.0996 z"
           id="path1484"
           style="opacity:1;fill:none;fill-opacity:1;fill-rule:nonzero;stroke:#dcebee;stroke-width:1.27230704;stroke-linecap:round;stroke-miterlimit:4;stroke-dasharray:none;stroke-dashoffset:0;stroke-opacity:1"
           inkscape:original="M 214.65039 380.00391 L 214.65039 391.26172 L 224.40039 385.63281 L 214.65039 380.00391 z "
           inkscape:radius="0.75277585"
           sodipodi:type="inkscape:offset" />
        <rect
           ry="0.75426137"
           y="361.45511"
           x="253.65051"
           height="9.9011469"
           width="3.0333874"
           id="rect1486"
           style="opacity:1;fill:none;fill-opacity:1;fill-rule:nonzero;stroke:#dcebee;stroke-width:1;stroke-linecap:round;stroke-miterlimit:4;stroke-dasharray:none;stroke-dashoffset:0;stroke-opacity:1" />
      </g>
    </g>
    <g
       id="media-seek-forward"
       transform="translate(26.521382,-9.5542271)">
      <rect
         style="opacity:0.72000002;fill:none;fill-opacity:0.86206863;stroke:none;stroke-width:1.49997652"
         id="rect3003-2"
         width="22"
         height="21.99991"
         x="291.4426"
         y="369.603" />
      <path
         id="path1510"
         d="m 295.12651,375.8464 a 0.57361548,0.56121388 0 0 0 -0.58815,0.56067 v 8.39356 a 0.57361548,0.56121388 0 0 0 0.86024,0.48646 l 6.379,-3.60313 v 3.11667 a 0.57361548,0.56121388 0 0 0 0.86024,0.48646 l 7.42888,-4.19678 a 0.57361548,0.56121388 0 0 0 0,-0.97293 l -7.42888,-4.19678 a 0.57361548,0.56121388 0 0 0 -0.27209,-0.0742 0.57361548,0.56121388 0 0 0 -0.58815,0.56067 v 3.11666 l -6.379,-3.60313 a 0.57361548,0.56121388 0 0 0 -0.27209,-0.0742 z"
         style="opacity:1;fill:none;fill-opacity:1;fill-rule:nonzero;stroke:#dcebee;stroke-width:1.40717173;stroke-linecap:round;stroke-miterlimit:4;stroke-dasharray:none;stroke-dashoffset:0;stroke-opacity:1"
         inkscape:connector-curvature="0" />
    </g>
    <g
       id="media-playback-start"
       transform="translate(13.428272,-66.456266)">
      <rect
         style="opacity:0.01000001;fill:#ed1515;fill-opacity:0.00392157;stroke:none;stroke-width:1.49997652"
         id="rect3003-1"
         width="22"
         height="21.99991"
         x="238.53572"
         y="404.50513" />
      <path
         sodipodi:type="inkscape:offset"
         inkscape:radius="0.75277585"
         inkscape:original="M 214.65039 380.00391 L 214.65039 391.26172 L 224.40039 385.63281 L 214.65039 380.00391 z "
         style="opacity:1;fill:none;fill-opacity:1;fill-rule:nonzero;stroke:#dcebee;stroke-width:1.86716008;stroke-linecap:round;stroke-miterlimit:4;stroke-dasharray:none;stroke-dashoffset:0;stroke-opacity:1"
         id="path1536"
         d="m 214.66797,379.25195 a 0.75285113,0.75285113 0 0 0 -0.76953,0.75196 v 11.25781 a 0.75285113,0.75285113 0 0 0 1.1289,0.65234 l 9.75,-5.6289 a 0.75285113,0.75285113 0 0 0 0,-1.30469 l -9.75,-5.62891 a 0.75285113,0.75285113 0 0 0 -0.35937,-0.0996 z"
         transform="matrix(0.76986433,0,0,0.75321982,80.533517,125.03989)" />
    </g>
    <g
       id="media-playback-stop"
       transform="translate(11.428268,-44.456358)">
      <rect
         style="opacity:0.01000001;fill:#ed1515;fill-opacity:0.00392157;stroke:none;stroke-width:1.49997652"
         id="rect3003-3"
         width="22"
         height="21.99991"
         x="262.53571"
         y="404.50513" />
      <rect
         style="opacity:1;fill:none;fill-opacity:1;fill-rule:nonzero;stroke:#dcebee;stroke-width:1.4242965;stroke-linecap:round;stroke-miterlimit:4;stroke-dasharray:none;stroke-dashoffset:0;stroke-opacity:1"
         id="rect2155"
         width="9.6097288"
         height="9.6097288"
         x="268.73083"
         y="410.70023"
         ry="0.73206145" />
    </g>
    <g
       id="media-record"
       transform="translate(-10.531613,-9.509153)">
      <rect
         style="opacity:0.01000001;fill:#ed1515;fill-opacity:0.00392157;stroke:none;stroke-width:1.49997652"
         id="rect3003-03"
         width="22"
         height="21.99991"
         x="262.49561"
         y="369.55792" />
      <rect
         style="opacity:1;fill:#ff4037;fill-opacity:1;fill-rule:nonzero;stroke:none;stroke-width:19.29540825;stroke-linecap:round;stroke-miterlimit:4;stroke-dasharray:none;stroke-dashoffset:0;stroke-opacity:1"
         id="rect2166"
         width="8.5237703"
         height="8.5237703"
         x="269.2337"
         y="376.29599"
         ry="4.2618852" />
    </g>
    <g
       id="media-eject"
       transform="translate(18.204959,13.710177)">
      <rect
         style="opacity:0.01000001;fill:#ed1515;fill-opacity:0.00392157;stroke:none;stroke-width:1.24997437"
         id="rect3003"
         width="22"
         height="21.999956"
         x="233.75903"
         y="368.3385" />
      <g
         transform="translate(3.4217496,-0.63081465)"
         id="g2180">
        <path
           transform="matrix(0,-0.5509567,0.64485163,0,-7.3381417,498.71577)"
           d="m 214.66797,379.25195 a 0.75285113,0.75285113 0 0 0 -0.76953,0.75196 v 11.25781 a 0.75285113,0.75285113 0 0 0 1.1289,0.65234 l 9.75,-5.6289 a 0.75285113,0.75285113 0 0 0 0,-1.30469 l -9.75,-5.62891 a 0.75285113,0.75285113 0 0 0 -0.35937,-0.0996 z"
           id="path2174"
           style="opacity:1;fill:none;fill-opacity:1;fill-rule:nonzero;stroke:#dcebee;stroke-width:2.04220319;stroke-linecap:round;stroke-miterlimit:4;stroke-dasharray:none;stroke-dashoffset:0;stroke-opacity:1"
           inkscape:original="M 214.65039 380.00391 L 214.65039 391.26172 L 224.40039 385.63281 L 214.65039 380.00391 z "
           inkscape:radius="0.75277585"
           sodipodi:type="inkscape:offset" />
        <rect
           ry="0.6256333"
           y="-245.4444"
           x="382.64569"
           height="8.2126532"
           width="2.516088"
           id="rect2176"
           style="opacity:1;fill:none;fill-opacity:1;fill-rule:nonzero;stroke:#dcebee;stroke-width:1.21727192;stroke-linecap:round;stroke-miterlimit:4;stroke-dasharray:none;stroke-dashoffset:0;stroke-opacity:1"
           transform="rotate(90)" />
      </g>
    </g>
    <g
       id="media-playback-pause"
       transform="translate(46.448368,-66.243345)">
      <rect
         style="opacity:0.878;fill:none;fill-opacity:0.67264572;stroke:none;stroke-width:1.49997652"
         id="rect3003-0"
         width="22"
         height="21.99991"
         x="227.51561"
         y="404.29221" />
      <rect
         ry="0.7614367"
         y="410.29446"
         x="234.23102"
         height="9.9953365"
         width="3.0622442"
         id="rect1454"
         style="opacity:1;fill:none;fill-opacity:1;fill-rule:nonzero;stroke:#dcebee;stroke-width:1;stroke-linecap:round;stroke-miterlimit:4;stroke-dasharray:none;stroke-dashoffset:0;stroke-opacity:1" />
      <rect
         style="opacity:1;fill:none;fill-opacity:1;fill-rule:nonzero;stroke:#dcebee;stroke-width:1;stroke-linecap:round;stroke-miterlimit:4;stroke-dasharray:none;stroke-dashoffset:0;stroke-opacity:1"
         id="rect844"
         width="3.0622442"
         height="9.9953365"
         x="239.73796"
         y="410.29446"
         ry="0.7614367" />
    </g>
    <g
       transform="matrix(-1,0,0,1,556.85564,-16.985471)"
       id="media-skip-backward">
      <rect
         y="355.03433"
         x="238.89166"
         height="21.99991"
         width="22"
         id="rect1523"
         style="opacity:0.01000001;fill:#ed1515;fill-opacity:0.00392157;stroke:none;stroke-width:1.49997652" />
      <g
         id="g1529"
         transform="translate(-0.11348322,-0.38063517)">
        <path
           sodipodi:type="inkscape:offset"
           inkscape:radius="0.75277585"
           inkscape:original="M 214.65039 380.00391 L 214.65039 391.26172 L 224.40039 385.63281 L 214.65039 380.00391 z "
           style="opacity:1;fill:none;fill-opacity:1;fill-rule:nonzero;stroke:#dcebee;stroke-width:1.27230704;stroke-linecap:round;stroke-miterlimit:4;stroke-dasharray:none;stroke-dashoffset:0;stroke-opacity:1"
           id="path1525"
           d="m 214.66797,379.25195 a 0.75285113,0.75285113 0 0 0 -0.76953,0.75196 v 11.25781 a 0.75285113,0.75285113 0 0 0 1.1289,0.65234 l 9.75,-5.6289 a 0.75285113,0.75285113 0 0 0 0,-1.30469 l -9.75,-5.62891 a 0.75285113,0.75285113 0 0 0 -0.35937,-0.0996 z"
           transform="matrix(0.79461048,0,0,0.77743096,73.361734,66.613055)" />
        <rect
           style="opacity:1;fill:none;fill-opacity:1;fill-rule:nonzero;stroke:#dcebee;stroke-width:1;stroke-linecap:round;stroke-miterlimit:4;stroke-dasharray:none;stroke-dashoffset:0;stroke-opacity:1"
           id="rect1527"
           width="3.0333874"
           height="9.9011469"
           x="253.65051"
           y="361.45511"
           ry="0.75426137" />
      </g>
    </g>
    <g
       transform="matrix(-1,0,0,1,609.40657,-9.5542276)"
       id="media-seek-backward">
      <rect
         y="369.603"
         x="291.4426"
         height="21.99991"
         width="22"
         id="rect1544"
         style="opacity:0.72000002;fill:none;fill-opacity:0.86206863;stroke:none;stroke-width:1.49997652" />
      <path
         inkscape:connector-curvature="0"
         style="opacity:1;fill:none;fill-opacity:1;fill-rule:nonzero;stroke:#dcebee;stroke-width:1.40717173;stroke-linecap:round;stroke-miterlimit:4;stroke-dasharray:none;stroke-dashoffset:0;stroke-opacity:1"
         d="m 295.12651,375.8464 a 0.57361548,0.56121388 0 0 0 -0.58815,0.56067 v 8.39356 a 0.57361548,0.56121388 0 0 0 0.86024,0.48646 l 6.379,-3.60313 v 3.11667 a 0.57361548,0.56121388 0 0 0 0.86024,0.48646 l 7.42888,-4.19678 a 0.57361548,0.56121388 0 0 0 0,-0.97293 l -7.42888,-4.19678 a 0.57361548,0.56121388 0 0 0 -0.27209,-0.0742 0.57361548,0.56121388 0 0 0 -0.58815,0.56067 v 3.11666 l -6.379,-3.60313 a 0.57361548,0.56121388 0 0 0 -0.27209,-0.0742 z"
         id="path1546" />
    </g>
  </g>
</svg>
