<?xml version="1.0" encoding="UTF-8" standalone="no"?>
<svg
   xmlns:dc="http://purl.org/dc/elements/1.1/"
   xmlns:cc="http://creativecommons.org/ns#"
   xmlns:rdf="http://www.w3.org/1999/02/22-rdf-syntax-ns#"
   xmlns:svg="http://www.w3.org/2000/svg"
   xmlns="http://www.w3.org/2000/svg"
   xmlns:sodipodi="http://sodipodi.sourceforge.net/DTD/sodipodi-0.dtd"
   xmlns:inkscape="http://www.inkscape.org/namespaces/inkscape"
   version="1.1"
   id="svg2"
   viewBox="0 0 108 128"
   sodipodi:docname="system.svg"
   inkscape:version="0.92.4 (5da689c313, 2019-01-14)"
   width="108"
   height="128">
  <sodipodi:namedview
     pagecolor="#ffffff"
     bordercolor="#666666"
     borderopacity="1"
     objecttolerance="10"
     gridtolerance="10"
     guidetolerance="10"
     inkscape:pageopacity="0"
     inkscape:pageshadow="2"
     inkscape:window-width="1553"
     inkscape:window-height="938"
     id="namedview66"
     showgrid="false"
     inkscape:zoom="4.5336246"
     inkscape:cx="53.277284"
     inkscape:cy="86.244454"
     inkscape:window-x="301"
     inkscape:window-y="80"
     inkscape:window-maximized="0"
     inkscape:current-layer="svg2"
     inkscape:pagecheckerboard="true"
     inkscape:showpageshadow="false" />
  <metadata
     id="metadata62">
    <rdf:RDF>
      <cc:Work
         rdf:about="">
        <dc:format>image/svg+xml</dc:format>
        <dc:type
           rdf:resource="http://purl.org/dc/dcmitype/StillImage" />
        <dc:title></dc:title>
      </cc:Work>
    </rdf:RDF>
  </metadata>
  <defs
     id="defs3051">
    <marker
       inkscape:stockid="Arrow2Lend"
       orient="auto"
       refY="0"
       refX="0"
       id="Arrow2Lend"
       style="overflow:visible"
       inkscape:isstock="true">
      <path
         id="path922"
         style="fill:#b42909;fill-opacity:1;fill-rule:evenodd;stroke:#b42909;stroke-width:0.625;stroke-linejoin:round;stroke-opacity:1"
         d="M 8.7185878,4.0337352 -2.2072895,0.01601326 8.7185884,-4.0017078 c -1.7454984,2.3720609 -1.7354408,5.6174519 -6e-7,8.035443 z"
         transform="matrix(-1.1,0,0,-1.1,-1.1,0)"
         inkscape:connector-curvature="0" />
    </marker>
    <marker
       inkscape:stockid="Arrow1Mstart"
       orient="auto"
       refY="0"
       refX="0"
       id="Arrow1Mstart"
       style="overflow:visible"
       inkscape:isstock="true">
      <path
         id="path907"
         d="M 0,0 5,-5 -12.5,0 5,5 Z"
         style="fill:#b42909;fill-opacity:1;fill-rule:evenodd;stroke:#b42909;stroke-width:1.00000003pt;stroke-opacity:1"
         transform="matrix(0.4,0,0,0.4,4,0)"
         inkscape:connector-curvature="0" />
    </marker>
    <marker
       inkscape:stockid="Arrow1Lend"
       orient="auto"
       refY="0"
       refX="0"
       id="Arrow1Lend"
       style="overflow:visible"
       inkscape:isstock="true">
      <path
         id="path904"
         d="M 0,0 5,-5 -12.5,0 5,5 Z"
         style="fill:#b42909;fill-opacity:1;fill-rule:evenodd;stroke:#b42909;stroke-width:1.00000003pt;stroke-opacity:1"
         transform="matrix(-0.8,0,0,-0.8,-10,0)"
         inkscape:connector-curvature="0" />
    </marker>
    <style
       type="text/css"
       id="current-color-scheme">
      .ColorScheme-Text {
        color:#31363b;
      }
      .ColorScheme-Background {
        color:#eff0f1;
      }
      .ColorScheme-Highlight {
        color:#3daee9;
      }
      .ColorScheme-ViewText {
        color:#31363b;
      }
      .ColorScheme-ViewBackground {
        color:#fcfcfc;
      }
      .ColorScheme-ViewHover {
        color:#93cee9;
      }
      .ColorScheme-ViewFocus{
        color:#3daee9;
      }
      .ColorScheme-ButtonText {
        color:#31363b;
      }
      .ColorScheme-ButtonBackground {
        color:#eff0f1;
      }
      .ColorScheme-ButtonHover {
        color:#93cee9;
      }
      .ColorScheme-ButtonFocus{
        color:#3daee9;
      }
      </style>
  </defs>
  <g
     transform="translate(157.34401,52.715768)"
     id="22-22-system-save-session">
    <path
       id="path37"
       class="ColorScheme-Text"
       d="m 2.999995,13.003509 v 0 0.9999 15 H 4 19 v -0.9999 -11.0001 -0.69915 h -0.007 l 0.007,-0.015 -3.29297,-3.29295 -0.008,0.015 v -0.015 h -0.69922 -12 z M 4,14.005359 h 3 v 4.00005 1.00005 h 8 v -1.00005 -4.00005 h 0.29298 L 18,16.712409 v 0.29295 11.0001 h -2 v -7.00005 H 15 7 5.999995 v 7.00005 H 4 Z m 4.000005,0 h 3.90039 v 4.00005 H 8.000005 Z M 7,22.005459 h 8 v 6 H 7 Z"
       style="color:#31363b;fill:currentColor;fill-opacity:1;stroke:none"
       inkscape:connector-curvature="0" />
    <path
       id="path39"
       d="M 0,10 V 32 H 22 V 10 Z"
       style="opacity:1;fill:none"
       inkscape:connector-curvature="0" />
  </g>
  <g
     transform="translate(95.456945,55.380851)"
     id="system-save-session">
    <path
       id="path42"
       class="ColorScheme-Text"
       d="m 26,4 v 24 h 5 14 5 V 10 L 49,9 45,5 44,4 H 43 32 Z m 1,1 h 5 v 8 H 43 V 5 h 0.585938 L 49,10.414062 V 27 H 45 V 19 H 31 v 8 h -4 z m 6,0 h 6 v 7 h -6 z m -1,15 h 12 v 7 H 32 Z"
       style="color:#31363b;fill:currentColor;fill-opacity:1;stroke:none"
       inkscape:connector-curvature="0" />
    <path
       id="path44"
       d="M 22,0 V 32 H 54 V 0 Z"
       style="opacity:1;fill:none"
       inkscape:connector-curvature="0" />
  </g>
  <g
     transform="translate(118.90277,-10.843071)"
     id="22-22-system-suspend-hibernate">
    <path
       id="path57"
       class="ColorScheme-Text"
       d="m 10.999995,12.999994 c -0.553995,0 -0.99999,0.445995 -0.99999,1.000005 0,0.55398 0.445995,0.99999 0.99999,0.99999 0.553995,0 0.99999,-0.44601 0.99999,-0.99999 0,-0.55401 -0.445995,-1.000005 -0.99999,-1.000005 z m -5.292945,1.999995 -0.707025,0.707025 1.292955,1.29297 0.70704,-0.707025 z m 10.58589,0 -1.29297,1.29297 0.70704,0.707025 1.292955,-1.29297 z m -5.292945,0.99999 c -2.769975,0 -4.99998,2.230005 -4.99998,4.99998 0,2.769975 2.230005,4.99998 4.99998,4.99998 2.769975,0 4.99998,-2.230005 4.99998,-4.99998 0,-2.769975 -2.230005,-4.99998 -4.99998,-4.99998 z m 0,1.000005 c 2.215995,0 3.999975,1.78398 3.999975,3.999975 0,2.215995 -1.78398,3.999975 -3.999975,3.999975 -2.215995,0 -3.999975,-1.78398 -3.999975,-3.999975 0,-2.215995 1.78398,-3.999975 3.999975,-3.999975 z m -6.99996,2.999985 c -0.55401,0 -1.000005,0.445995 -1.000005,0.99999 0,0.553995 0.445995,0.99999 1.000005,0.99999 0.55398,0 0.99999,-0.445995 0.99999,-0.99999 0,-0.553995 -0.44601,-0.99999 -0.99999,-0.99999 z m 13.99992,0 c -0.55398,0 -0.99999,0.445995 -0.99999,0.99999 0,0.553995 0.44601,0.99999 0.99999,0.99999 0.55401,0 1.000005,-0.445995 1.000005,-0.99999 0,-0.553995 -0.445995,-0.99999 -1.000005,-0.99999 z m -11.70696,4.999965 -1.29297,1.29297 0.707025,0.707025 1.29297,-1.292955 z m 9.414015,0 -0.70704,0.70704 1.29297,1.292955 0.707025,-0.707025 z m -4.707015,1.999995 c -0.553995,0 -0.99999,0.44601 -0.99999,0.99999 0,0.55401 0.445995,1.000005 0.99999,1.000005 0.553995,0 0.99999,-0.445995 0.99999,-1.000005 0,-0.55398 -0.445995,-0.99999 -0.99999,-0.99999 z"
       style="color:#31363b;fill:currentColor;fill-opacity:1;stroke:none"
       inkscape:connector-curvature="0" />
    <path
       id="path59"
       d="M 0,10 V 32 H 22 V 10 Z"
       style="opacity:1;fill:none"
       inkscape:connector-curvature="0" />
  </g>
  <g
     transform="translate(132.59489,85.579869)"
     id="system-suspend-hibernate">
    <path
       id="path62"
       class="ColorScheme-Text"
       d="m 38,4 a 1,1 0 0 0 -1,1 1,1 0 0 0 1,1 1,1 0 0 0 1,-1 1,1 0 0 0 -1,-1 z m -8.837891,2.453125 -0.708984,0.7089844 2.123047,2.1210937 0.707031,-0.7070312 z m 17.675782,0 -2.121094,2.1230469 0.707031,0.7070312 2.123047,-2.1210937 z M 38,7 a 9,9 0 0 0 -9,9 9,9 0 0 0 9,9 9,9 0 0 0 9,-9 9,9 0 0 0 -9,-9 z m 0,1 a 8,8 0 0 1 8,8 8,8 0 0 1 -8,8 8,8 0 0 1 -8,-8 8,8 0 0 1 8,-8 z m -11,7 a 1,1 0 0 0 -1,1 1,1 0 0 0 1,1 1,1 0 0 0 1,-1 1,1 0 0 0 -1,-1 z m 22,0 a 1,1 0 0 0 -1,1 1,1 0 0 0 1,1 1,1 0 0 0 1,-1 1,1 0 0 0 -1,-1 z m -18.423828,7.716797 -2.123047,2.121094 0.708984,0.708984 2.121094,-2.123047 z m 14.847656,0 -0.707031,0.707031 2.121094,2.123047 0.708984,-0.708984 z M 38,26 a 1,1 0 0 0 -1,1 1,1 0 0 0 1,1 1,1 0 0 0 1,-1 1,1 0 0 0 -1,-1 z"
       style="color:#31363b;fill:currentColor;fill-opacity:1;stroke:none"
       inkscape:connector-curvature="0" />
    <path
       id="path64"
       d="M 22,0 V 32 H 54 V 0 Z"
       style="opacity:1;fill:none"
       inkscape:connector-curvature="0" />
  </g>
  <g
     transform="translate(164.04355,-11.496423)"
     id="22-22-system-switch-user">
    <path
       id="path77"
       class="ColorScheme-Text"
       d="M 16.294922,13 13.003906,16.292969 12.796875,16.5 13.003906,16.707031 16.294922,20 17,19.292969 14.708984,17 H 19 V 16 H 14.708984 L 17,13.707031 Z m -8.2968751,3 c -1.661189,0 -3,1.338 -3,3 0,1.662 1.338811,3 3,3 1.6611889,0 2.9980471,-1.338 2.9980471,-3 0,-1.662 -1.3368582,-3 -2.9980471,-3 z m 0,7 C 5.2293786,23 3,25.22998 3,28 v 1 h 9.996094 v -1 c 0,-2.77002 -2.229379,-5 -4.9980471,-5 z m 0,1 c 2.2149291,0 3.9980471,1.78399 3.9980471,4 H 4 c 0,-2.21601 1.7831183,-4 3.9980469,-4 z"
       style="color:#31363b;fill:currentColor;fill-opacity:1;stroke:none"
       inkscape:connector-curvature="0" />
    <path
       id="path79"
       d="M 0,10 V 32 H 22 V 10 Z"
       style="opacity:1;fill:none"
       inkscape:connector-curvature="0" />
  </g>
  <g
     transform="translate(95.741632,83.444043)"
     id="system-switch-user">
    <path
       id="path82"
       class="ColorScheme-Text"
       d="m 44,4 -4,4 -1,1 5,5 0.707031,-0.707031 L 40.914062,9.5 H 50 V 8.46875 L 40.914062,8.5 44.707031,4.7070312 Z M 33.5,9 C 31.014719,9 29,11.014719 29,13.5 29,15.985281 31.014719,18 33.5,18 35.985281,18 38,15.985281 38,13.5 38,11.014719 35.985281,9 33.5,9 Z m 0,1 C 35.432997,10 37,11.567003 37,13.5 37,15.432997 35.432997,17 33.5,17 31.567003,17 30,15.432997 30,13.5 30,11.567003 31.567003,10 33.5,10 Z m 0,9 C 29.357864,19 26,22.581722 26,27 v 1 h 15 v -1 c 0,-4.418278 -3.357864,-8 -7.5,-8 z m 0,1 c 3.589851,0 6.5,3.134007 6.5,7 H 27 c 0,-3.865993 2.910149,-7 6.5,-7 z"
       style="color:#31363b;fill:currentColor;fill-opacity:1;stroke:none"
       inkscape:connector-curvature="0" />
    <path
       id="path84"
       d="M 22,0 V 32 H 54 V 0 Z"
       style="opacity:1;fill:none"
       inkscape:connector-curvature="0" />
  </g>
  <g
     transform="translate(120.40278,19.193082)"
     id="22-22-system-users">
    <path
       id="path87"
       class="ColorScheme-Text"
       d="m 13.999995,12.999864 c -1.661999,0 -3,1.338 -3,3 0,1.662 1.338001,3 3,3 1.661999,0 3,-1.338 3,-3 0,-1.662 -1.338001,-3 -3,-3 z m -6,3 c -1.661999,0 -3,1.338 -3,3 0,1.662 1.338001,3 3,3 1.661999,0 3,-1.338 3,-3 0,-1.662 -1.338001,-3 -3,-3 z m 6,4 c -0.646349,0 -1.255999,0.134093 -1.818359,0.361328 l 0.455078,0.914063 c 0.427816,-0.1605 0.877758,-0.275391 1.363281,-0.275391 2.216023,0 4,1.783975 4,4 h -3.5 l 0.5,1 h 4 v -1 c 0,-2.77002 -2.229982,-5 -5,-5 z m -6,3 c -2.770018,0 -5,2.22998 -5,5 v 1 h 10 v -1 c 0,-2.77002 -2.229982,-5 -5,-5 z m 0,1 c 2.216008,0 4,1.783975 4,4 h -8 c 0,-2.216025 1.783977,-4 4,-4 z"
       style="color:#31363b;fill:currentColor;fill-opacity:1;stroke:none"
       inkscape:connector-curvature="0" />
    <path
       id="path89"
       d="M 0,10 V 32 H 22 V 10 Z"
       style="opacity:1;fill:none"
       inkscape:connector-curvature="0" />
  </g>
  <g
     transform="translate(130.79426,24.631092)"
     id="system-users">
    <path
       id="path92"
       class="ColorScheme-Text"
       d="M 42.5,4 A 4.5,4.5 0 0 0 38,8.5 4.5,4.5 0 0 0 42.5,13 4.5,4.5 0 0 0 47,8.5 4.5,4.5 0 0 0 42.5,4 Z m 0,1 A 3.5,3.5 0 0 1 46,8.5 3.5,3.5 0 0 1 42.5,12 3.5,3.5 0 0 1 39,8.5 3.5,3.5 0 0 1 42.5,5 Z m -9,4 C 31.014719,9 29,11.014719 29,13.5 29,15.985281 31.014719,18 33.5,18 35.985281,18 38,15.985281 38,13.5 38,11.014719 35.985281,9 33.5,9 Z m 0,1 A 3.5,3.5 0 0 1 37,13.5 3.5,3.5 0 0 1 33.5,17 3.5,3.5 0 0 1 30,13.5 3.5,3.5 0 0 1 33.5,10 Z m 9,4 c -0.88285,0.003 -1.758266,0.172285 -2.585938,0.5 -0.06618,0.423679 -0.174132,0.839768 -0.322265,1.242188 C 40.494507,15.254879 41.490227,15.000767 42.5,15 c 3.589851,0 6.5,3.134007 6.5,7 h -8.341797 c 0.170323,0.323289 0.325499,0.657112 0.464844,1 H 50 v -1 c 0,-4.418278 -3.357864,-8 -7.5,-8 z m -9,5 C 29.357864,19 26,22.581722 26,27 v 1 h 15 v -1 c 0,-4.418278 -3.357864,-8 -7.5,-8 z m 0,1 c 3.589851,0 6.5,3.134007 6.5,7 H 27 c 0,-3.865993 2.910149,-7 6.5,-7 z"
       style="color:#31363b;fill:currentColor;fill-opacity:1;stroke:none"
       inkscape:connector-curvature="0" />
    <path
       id="path94"
       d="M 22,0 V 32 H 54 V 0 Z"
       style="opacity:1;fill:none"
       inkscape:connector-curvature="0" />
  </g>
  <g
     transform="translate(116.46311,-34.426315)"
     id="22-22-system-search">
    <path
       id="path61"
       class="ColorScheme-Text"
       d="m 9.0000001,13 c -3.3240047,0 -6,2.675995 -6,6 0,3.324005 2.6759953,6 6,6 C 10.481206,25 11.830584,24.465318 12.875,23.582031 L 18.292969,29 19,28.292969 13.582032,22.875 C 14.465318,21.830584 15,20.481205 15,19 15,15.675995 12.324005,13 9.0000001,13 Z m 0,1 C 11.770005,14 14,16.229995 14,19 c 0,2.770005 -2.229995,5 -4.9999999,5 -2.7700048,0 -5,-2.229995 -5,-5 0,-2.770005 2.2299952,-5 5,-5 z"
       style="color:#31363b;fill:currentColor;fill-opacity:1;stroke:none"
       inkscape:connector-curvature="0" />
    <path
       id="path63"
       d="M 0,10 V 32 H 22 V 10 Z"
       style="opacity:1;fill:none"
       inkscape:connector-curvature="0" />
  </g>
  <g
     transform="translate(126.33847,-30.496423)"
     id="system-search">
    <path
       id="path66"
       class="ColorScheme-Text"
       d="m 35,4 a 9,9 0 0 0 -9,9 9,9 0 0 0 9,9 9,9 0 0 0 5.994141,-2.298828 L 49.292969,28 50,27.292969 41.699219,18.992187 A 9,9 0 0 0 44,13 9,9 0 0 0 35,4 Z m 0,1 a 8,8 0 0 1 8,8 8,8 0 0 1 -8,8 8,8 0 0 1 -8,-8 8,8 0 0 1 8,-8 z"
       style="color:#31363b;fill:currentColor;fill-opacity:1;stroke:none"
       inkscape:connector-curvature="0" />
    <path
       id="path68"
       d="M 22,0 V 32 H 54 V 0 Z"
       style="opacity:1;fill:none"
       inkscape:connector-curvature="0" />
  </g>
  <g
     id="system-log-out"
     transform="translate(-19.327576,100.36356)">
    <rect
       ry="0"
       y="-100.36356"
       x="41.327576"
       height="32"
       width="32"
       id="rect1800"
       style="opacity:1;fill:none;fill-opacity:0.9956522;fill-rule:nonzero;stroke:none;stroke-width:6.86645555;stroke-linecap:round;stroke-linejoin:round;stroke-miterlimit:4;stroke-dasharray:none;stroke-dashoffset:0;stroke-opacity:1" />
    <g
       style="fill:#32f9bb;fill-opacity:0.9956522;stroke:#ffffff;stroke-width:2.44541931;stroke-miterlimit:4;stroke-dasharray:none;stroke-opacity:1"
       transform="matrix(0.94358619,0,0,0.93799722,36.112903,-103.73254)"
       id="g4579">
      <circle
         style="opacity:1;fill:#07e49f;fill-opacity:0.9956522;fill-rule:nonzero;stroke:#05a674;stroke-width:1.44559753;stroke-linecap:round;stroke-miterlimit:4;stroke-dasharray:none;stroke-dashoffset:0;stroke-opacity:0.99607843"
         id="path4560"
         cx="22.483027"
         cy="20.649298"
         r="16" />
    </g>
    <g
       transform="translate(81.035564,-35.945431)"
       id="g1786">
      <rect
         style="opacity:1;fill:#ffffff;fill-opacity:1;fill-rule:nonzero;stroke:none;stroke-width:0.63478255;stroke-linecap:round;stroke-miterlimit:4;stroke-dasharray:none;stroke-dashoffset:0;stroke-opacity:1"
         id="rect1778"
         width="13.90539"
         height="3.7160954"
         x="-33.499786"
         y="-50.397762"
         ry="1.6443753" />
      <path
         sodipodi:type="star"
         style="opacity:1;fill:#fbfffe;fill-opacity:0.9956522;fill-rule:nonzero;stroke:#ffffff;stroke-width:4.9000001;stroke-linecap:round;stroke-linejoin:round;stroke-miterlimit:4;stroke-dasharray:none;stroke-dashoffset:0;stroke-opacity:1"
         id="path1782"
         sodipodi:sides="3"
         sodipodi:cx="-37.016949"
         sodipodi:cy="-81.084747"
         sodipodi:r1="17.014652"
         sodipodi:r2="8.5073261"
         sodipodi:arg1="-0.0081965358"
         sodipodi:arg2="1.0390011"
         inkscape:flatsided="false"
         inkscape:rounded="-3.46945e-18"
         inkscape:randomized="0"
         d="m -20.002868,-81.224207 -12.700173,7.471908 -12.700172,7.471908 -0.120776,-14.734627 -0.120776,-14.734626 12.820949,7.262719 z"
         inkscape:transform-center-x="0.27743416"
         inkscape:transform-center-y="-0.4157201"
         transform="matrix(0.35673475,0,0,0.3761566,-7.6543831,-17.943798)" />
    </g>
  </g>
  <g
     id="system-shutdown"
     transform="translate(47.073656,155.9805)">
    <rect
       style="opacity:1;fill:none;fill-opacity:0.9956522;fill-rule:nonzero;stroke:none;stroke-width:6.86645555;stroke-linecap:round;stroke-linejoin:round;stroke-miterlimit:4;stroke-dasharray:none;stroke-dashoffset:0;stroke-opacity:1"
       id="rect1824"
       width="32"
       height="32"
       x="-25.073656"
       y="-123.9805"
       ry="0" />
    <g
       id="g1828"
       transform="matrix(0.94358619,0,0,0.93799722,-30.288328,-127.34947)"
       style="fill:#f5522c;fill-opacity:1;stroke:#b42909;stroke-width:2.44541931;stroke-miterlimit:4;stroke-dasharray:none;stroke-opacity:1">
      <circle
         r="16"
         cy="20.649298"
         cx="22.483027"
         id="circle1826"
         style="opacity:1;fill:#f5522c;fill-opacity:1;fill-rule:nonzero;stroke:#b42909;stroke-width:1.44559753;stroke-linecap:round;stroke-miterlimit:4;stroke-dasharray:none;stroke-dashoffset:0;stroke-opacity:1" />
    </g>
    <g
       transform="matrix(0.91740649,0,0,0.91740649,-0.74942531,-8.9814456)"
       id="g1852">
      <path
         style="opacity:1;fill:none;fill-opacity:1;fill-rule:nonzero;stroke:#ffffff;stroke-width:3.65899992;stroke-linecap:round;stroke-linejoin:round;stroke-miterlimit:4;stroke-dasharray:none;stroke-dashoffset:0;stroke-opacity:1"
         id="path1844"
         sodipodi:type="arc"
         sodipodi:cx="-9.0736399"
         sodipodi:cy="-108.08558"
         sodipodi:rx="8.8703327"
         sodipodi:ry="9.3020868"
         sodipodi:start="5.2654167"
         sodipodi:end="4.1560047"
         d="m -4.4143554,-116.00108 a 8.8703327,9.3020868 0 0 1 3.8761201,10.44749 8.8703327,9.3020868 0 0 1 -8.5205177,6.770085 8.8703327,9.3020868 0 0 1 -8.542139,-6.740055 8.8703327,9.3020868 0 0 1 3.842658,-10.46107"
         sodipodi:open="true" />
      <rect
         style="opacity:1;fill:#ffffff;fill-opacity:1;fill-rule:nonzero;stroke:none;stroke-width:2.05747843;stroke-linecap:round;stroke-linejoin:round;stroke-miterlimit:4;stroke-dasharray:none;stroke-dashoffset:0;stroke-opacity:1"
         id="rect1848"
         width="3.7"
         height="10.254758"
         x="-10.923655"
         y="-119.87751"
         ry="1.85" />
    </g>
  </g>
  <g
     id="22-22-system-log-out"
     transform="translate(-95.265076,121.36356)">
    <rect
       style="opacity:1;fill:none;fill-opacity:0.9956522;fill-rule:nonzero;stroke:none;stroke-width:4.72068834;stroke-linecap:round;stroke-linejoin:round;stroke-miterlimit:4;stroke-dasharray:none;stroke-dashoffset:0;stroke-opacity:1"
       id="rect1865"
       width="22"
       height="22"
       x="95.265076"
       y="-121.36356"
       ry="0" />
    <g
       id="g1869"
       transform="matrix(0.62629103,0,0,0.62258144,92.184158,-123.21943)"
       style="fill:#32f9bb;fill-opacity:0.9956522;stroke:none;stroke-width:2.44541931;stroke-miterlimit:4;stroke-dasharray:none;stroke-opacity:1">
      <circle
         r="16"
         cy="20.649298"
         cx="22.483027"
         id="circle1867"
         style="opacity:1;fill:#07e49f;fill-opacity:0.9956522;fill-rule:nonzero;stroke:none;stroke-width:1.44559753;stroke-linecap:round;stroke-miterlimit:4;stroke-dasharray:none;stroke-dashoffset:0;stroke-opacity:0.99607843" />
    </g>
    <g
       id="g1875"
       transform="matrix(0.6875,0,0,0.6875,122.56432,-77.076098)">
      <rect
         ry="1.6443753"
         y="-50.397762"
         x="-33.499786"
         height="3.7160954"
         width="13.90539"
         id="rect1871"
         style="opacity:1;fill:#ffffff;fill-opacity:1;fill-rule:nonzero;stroke:none;stroke-width:0.63478255;stroke-linecap:round;stroke-miterlimit:4;stroke-dasharray:none;stroke-dashoffset:0;stroke-opacity:1" />
      <path
         transform="matrix(0.35673475,0,0,0.3761566,-7.6543831,-17.943798)"
         inkscape:transform-center-y="-0.4157201"
         inkscape:transform-center-x="0.27743416"
         d="m -20.002868,-81.224207 -12.700173,7.471908 -12.700172,7.471908 -0.120776,-14.734627 -0.120776,-14.734626 12.820949,7.262719 z"
         inkscape:randomized="0"
         inkscape:rounded="-3.46945e-18"
         inkscape:flatsided="false"
         sodipodi:arg2="1.0390011"
         sodipodi:arg1="-0.0081965358"
         sodipodi:r2="8.5073261"
         sodipodi:r1="17.014652"
         sodipodi:cy="-81.084747"
         sodipodi:cx="-37.016949"
         sodipodi:sides="3"
         id="path1873"
         style="opacity:1;fill:#fbfffe;fill-opacity:0.9956522;fill-rule:nonzero;stroke:#ffffff;stroke-width:4.9000001;stroke-linecap:round;stroke-linejoin:round;stroke-miterlimit:4;stroke-dasharray:none;stroke-dashoffset:0;stroke-opacity:1"
         sodipodi:type="star" />
    </g>
  </g>
  <g
     transform="matrix(0.6875,0,0,0.6875,17.238138,117.23659)"
     id="22-22-system-shutdown">
    <rect
       ry="0"
       y="-123.9805"
       x="-25.073656"
       height="32"
       width="32"
       id="rect885"
       style="opacity:1;fill:none;fill-opacity:0.9956522;fill-rule:nonzero;stroke:none;stroke-width:6.86645555;stroke-linecap:round;stroke-linejoin:round;stroke-miterlimit:4;stroke-dasharray:none;stroke-dashoffset:0;stroke-opacity:1" />
    <g
       style="fill:#f5522c;fill-opacity:1;stroke:#b42909;stroke-width:2.44541931;stroke-miterlimit:4;stroke-dasharray:none;stroke-opacity:1"
       transform="matrix(0.94358619,0,0,0.93799722,-30.288328,-127.34947)"
       id="g889">
      <circle
         style="opacity:1;fill:#f5522c;fill-opacity:1;fill-rule:nonzero;stroke:none;stroke-width:1.39532912;stroke-linecap:round;stroke-miterlimit:4;stroke-dasharray:none;stroke-dashoffset:0;stroke-opacity:1"
         id="circle887"
         cx="22.483027"
         cy="20.649298"
         r="15.443624" />
    </g>
    <g
       id="g895"
       transform="matrix(0.91740649,0,0,0.91740649,-0.74942531,-8.9814456)">
      <path
         sodipodi:open="true"
         d="m -4.4143554,-116.011 a 8.8703327,9.3020868 0 0 1 3.8761201,10.4475 8.8703327,9.3020868 0 0 1 -8.5205177,6.770077 8.8703327,9.3020868 0 0 1 -8.542139,-6.740047 8.8703327,9.3020868 0 0 1 3.842658,-10.46108"
         sodipodi:end="4.1560047"
         sodipodi:start="5.2654167"
         sodipodi:ry="9.3020868"
         sodipodi:rx="8.8703327"
         sodipodi:cy="-108.0955"
         sodipodi:cx="-9.0736399"
         sodipodi:type="arc"
         id="path891"
         style="opacity:1;fill:none;fill-opacity:1;fill-rule:nonzero;stroke:#ffffff;stroke-width:3.65899992;stroke-linecap:round;stroke-linejoin:round;stroke-miterlimit:4;stroke-dasharray:none;stroke-dashoffset:0;stroke-opacity:1" />
      <rect
         ry="1.85"
         y="-119.88742"
         x="-10.923655"
         height="10.254758"
         width="3.7"
         id="rect893"
         style="opacity:1;fill:#ffffff;fill-opacity:1;fill-rule:nonzero;stroke:none;stroke-width:2.05747843;stroke-linecap:round;stroke-linejoin:round;stroke-miterlimit:4;stroke-dasharray:none;stroke-dashoffset:0;stroke-opacity:1" />
    </g>
  </g>
  <g
     id="system-reboot"
     transform="translate(-32.17791,33.877679)">
    <rect
       ry="0"
       y="30.122322"
       x="54.17791"
       height="32"
       width="32"
       id="rect1820"
       style="opacity:1;fill:none;fill-opacity:1;fill-rule:nonzero;stroke:none;stroke-width:7.03942204;stroke-linecap:round;stroke-linejoin:round;stroke-miterlimit:4;stroke-dasharray:none;stroke-dashoffset:0;stroke-opacity:1" />
    <g
       id="g1245"
       transform="matrix(0.94358619,0,0,0.93799722,48.963234,26.753339)"
       style="fill:#ffae54;fill-opacity:1;stroke:#ffffff;stroke-width:2.44541931;stroke-miterlimit:4;stroke-dasharray:none;stroke-opacity:1">
      <circle
         r="16"
         cy="20.649298"
         cx="22.483027"
         id="circle1243"
         style="opacity:1;fill:#f8ec28;fill-opacity:0.99607843;fill-rule:nonzero;stroke:#aaa005;stroke-width:1.44559753;stroke-linecap:round;stroke-miterlimit:4;stroke-dasharray:none;stroke-dashoffset:0;stroke-opacity:0.99607843" />
    </g>
    <g
       transform="matrix(0.96520093,0,0,0.96520093,112.17913,17.276069)"
       id="g1853">
      <path
         sodipodi:type="star"
         style="opacity:1;fill:#fbfffe;fill-opacity:0.9956522;fill-rule:nonzero;stroke:#ffffff;stroke-width:4.9000001;stroke-linecap:round;stroke-linejoin:round;stroke-miterlimit:4;stroke-dasharray:none;stroke-dashoffset:0;stroke-opacity:1"
         id="path1835"
         sodipodi:sides="3"
         sodipodi:cx="-37.016949"
         sodipodi:cy="-81.084747"
         sodipodi:r1="18.689646"
         sodipodi:r2="8.5073261"
         sodipodi:arg1="0.5921175"
         sodipodi:arg2="1.6393152"
         inkscape:flatsided="false"
         inkscape:rounded="-3.46945e-18"
         inkscape:randomized="0"
         d="m -21.509015,-70.653695 -16.09039,-1.943689 -16.205067,-0.272624 9.728479,-12.962843 8.338633,-13.897687 6.361912,14.906531 z"
         inkscape:transform-center-x="0.25803012"
         inkscape:transform-center-y="-0.38664454"
         transform="matrix(0.22810159,0,0,0.24052022,-29.116943,43.31067)" />
      <path
         style="opacity:1;fill:none;fill-opacity:0.99607843;fill-rule:nonzero;stroke:#ffffff;stroke-width:3.19000936;stroke-linecap:round;stroke-linejoin:round;stroke-miterlimit:4;stroke-dasharray:none;stroke-dashoffset:0;stroke-opacity:0.99607843"
         id="path1849"
         sodipodi:type="arc"
         sodipodi:cx="-43.51651"
         sodipodi:cy="30.159662"
         sodipodi:rx="8.7140846"
         sodipodi:ry="8.7140846"
         sodipodi:start="0.45553887"
         sodipodi:end="5.4782515"
         d="m -35.691052,33.993391 a 8.7140846,8.7140846 0 0 1 -9.045079,4.794585 8.7140846,8.7140846 0 0 1 -7.361828,-7.113717 8.7140846,8.7140846 0 0 1 4.481793,-9.204076 8.7140846,8.7140846 0 0 1 10.139902,1.4085"
         sodipodi:open="true" />
    </g>
  </g>
  <g
     id="22-22-system-reboot"
     transform="translate(14.795826,-2.9346459)">
    <rect
       style="opacity:1;fill:none;fill-opacity:1;fill-rule:nonzero;stroke:none;stroke-width:4.83960247;stroke-linecap:round;stroke-linejoin:round;stroke-miterlimit:4;stroke-dasharray:none;stroke-dashoffset:0;stroke-opacity:1"
       id="rect1880"
       width="22"
       height="22"
       x="-14.795826"
       y="66.934647"
       ry="0" />
    <g
       style="fill:#ffae54;fill-opacity:1;stroke:none;stroke-width:2.44541931;stroke-miterlimit:4;stroke-dasharray:none;stroke-opacity:1"
       transform="matrix(0.63198289,0,0,0.62823958,-18.004716,64.961938)"
       id="g1884">
      <circle
         style="opacity:1;fill:#f8ec28;fill-opacity:0.99607843;fill-rule:nonzero;stroke:none;stroke-width:1.44559753;stroke-linecap:round;stroke-miterlimit:4;stroke-dasharray:none;stroke-dashoffset:0;stroke-opacity:0.99607843"
         id="circle1882"
         cx="22.483027"
         cy="20.649298"
         r="16" />
    </g>
    <g
       id="g1890"
       transform="matrix(0.6310019,0,0,0.6310019,23.66255,59.062859)">
      <path
         transform="matrix(0.22810159,0,0,0.24052022,-29.116943,43.31067)"
         inkscape:transform-center-y="-0.38664454"
         inkscape:transform-center-x="0.25803012"
         d="m -21.509015,-70.653695 -16.09039,-1.943689 -16.205067,-0.272624 9.728479,-12.962843 8.338633,-13.897687 6.361912,14.906531 z"
         inkscape:randomized="0"
         inkscape:rounded="-3.46945e-18"
         inkscape:flatsided="false"
         sodipodi:arg2="1.6393152"
         sodipodi:arg1="0.5921175"
         sodipodi:r2="8.5073261"
         sodipodi:r1="18.689646"
         sodipodi:cy="-81.084747"
         sodipodi:cx="-37.016949"
         sodipodi:sides="3"
         id="path1886"
         style="opacity:1;fill:#fbfffe;fill-opacity:0.9956522;fill-rule:nonzero;stroke:#ffffff;stroke-width:4.9000001;stroke-linecap:round;stroke-linejoin:round;stroke-miterlimit:4;stroke-dasharray:none;stroke-dashoffset:0;stroke-opacity:1"
         sodipodi:type="star" />
      <path
         sodipodi:open="true"
         d="m -35.691052,33.993391 a 8.7140846,8.7140846 0 0 1 -9.045079,4.794585 8.7140846,8.7140846 0 0 1 -7.361828,-7.113717 8.7140846,8.7140846 0 0 1 4.481793,-9.204076 8.7140846,8.7140846 0 0 1 10.139902,1.4085"
         sodipodi:end="5.4782515"
         sodipodi:start="0.45553887"
         sodipodi:ry="8.7140846"
         sodipodi:rx="8.7140846"
         sodipodi:cy="30.159662"
         sodipodi:cx="-43.51651"
         sodipodi:type="arc"
         id="path1888"
         style="opacity:1;fill:none;fill-opacity:0.99607843;fill-rule:nonzero;stroke:#ffffff;stroke-width:2.67199993;stroke-linecap:round;stroke-linejoin:round;stroke-miterlimit:4;stroke-dasharray:none;stroke-dashoffset:0;stroke-opacity:0.99607843" />
    </g>
  </g>
  <g
     id="system-suspend"
     transform="translate(77.229263,43.153702)">
    <rect
       ry="0"
       y="52.846302"
       x="-55.229263"
       height="32"
       width="32"
       id="rect1908"
       style="opacity:1;fill:none;fill-opacity:0.9956522;fill-rule:nonzero;stroke:none;stroke-width:6.86645555;stroke-linecap:round;stroke-linejoin:round;stroke-miterlimit:4;stroke-dasharray:none;stroke-dashoffset:0;stroke-opacity:1" />
    <g
       style="fill:#53a4f8;fill-opacity:1;stroke:#075ab1;stroke-width:2.44541931;stroke-miterlimit:4;stroke-dasharray:none;stroke-opacity:1"
       transform="matrix(0.94358619,0,0,0.93799722,-60.443935,49.47733)"
       id="g1912">
      <circle
         style="opacity:1;fill:#53a4f8;fill-opacity:1;fill-rule:nonzero;stroke:#075ab1;stroke-width:1.44559753;stroke-linecap:round;stroke-miterlimit:4;stroke-dasharray:none;stroke-dashoffset:0;stroke-opacity:1"
         id="circle1910"
         cx="22.483027"
         cy="20.649298"
         r="16" />
    </g>
    <g
       transform="translate(-4.0384429,-35.443206)"
       id="g1937">
      <path
         sodipodi:open="true"
         d="m -27.543881,106.7982 a 8.137701,8.5337944 0 0 1 -7.646938,5.61507 8.137701,8.5337944 0 0 1 -7.646937,-5.61507"
         sodipodi:end="2.7925268"
         sodipodi:start="0.34906585"
         sodipodi:ry="8.5337944"
         sodipodi:rx="8.137701"
         sodipodi:cy="103.87947"
         sodipodi:cx="-35.190819"
         sodipodi:type="arc"
         id="path1914"
         style="opacity:1;fill:none;fill-opacity:1;fill-rule:nonzero;stroke:#ffffff;stroke-width:3.3567903;stroke-linecap:round;stroke-linejoin:round;stroke-miterlimit:4;stroke-dasharray:none;stroke-dashoffset:0;stroke-opacity:1" />
      <rect
         ry="1.3124548"
         y="-39.965694"
         x="-105.60197"
         height="9.5497484"
         width="2.6249096"
         id="rect1916"
         style="opacity:1;fill:#ffffff;fill-opacity:1;fill-rule:nonzero;stroke:none;stroke-width:1.67234111;stroke-linecap:round;stroke-linejoin:round;stroke-miterlimit:4;stroke-dasharray:none;stroke-dashoffset:0;stroke-opacity:1"
         transform="rotate(-90)" />
      <path
         style="opacity:1;fill:none;fill-opacity:1;fill-rule:nonzero;stroke:#ffffff;stroke-width:3.3567903;stroke-linecap:round;stroke-linejoin:round;stroke-miterlimit:4;stroke-dasharray:none;stroke-dashoffset:0;stroke-opacity:1"
         id="path1930"
         sodipodi:type="arc"
         sodipodi:cx="-35.190819"
         sodipodi:cy="-104.69957"
         sodipodi:rx="8.137701"
         sodipodi:ry="8.5337944"
         sodipodi:start="0.34906585"
         sodipodi:end="2.7925268"
         d="m -27.543881,-101.78084 a 8.137701,8.5337944 0 0 1 -7.646938,5.615065 8.137701,8.5337944 0 0 1 -7.646937,-5.615065"
         sodipodi:open="true"
         transform="scale(1,-1)" />
    </g>
  </g>
  <g
     transform="matrix(0.6875,0,0,0.6875,37.970118,59.668171)"
     id="22-22-system-suspend">
    <rect
       style="opacity:1;fill:none;fill-opacity:0.9956522;fill-rule:nonzero;stroke:none;stroke-width:6.86645555;stroke-linecap:round;stroke-linejoin:round;stroke-miterlimit:4;stroke-dasharray:none;stroke-dashoffset:0;stroke-opacity:1"
       id="rect1948"
       width="32"
       height="32"
       x="-55.229263"
       y="52.846302"
       ry="0" />
    <g
       id="g1952"
       transform="matrix(0.94358619,0,0,0.93799722,-60.443935,49.47733)"
       style="fill:#53a4f8;fill-opacity:1;stroke:#075ab1;stroke-width:2.44541931;stroke-miterlimit:4;stroke-dasharray:none;stroke-opacity:1">
      <circle
         r="15.124541"
         cy="20.649298"
         cx="22.483027"
         id="circle1950"
         style="opacity:1;fill:#53a4f8;fill-opacity:1;fill-rule:nonzero;stroke:none;stroke-width:1.3664999;stroke-linecap:round;stroke-miterlimit:4;stroke-dasharray:none;stroke-dashoffset:0;stroke-opacity:1" />
    </g>
    <g
       id="g1960"
       transform="translate(-4.0384429,-35.443206)">
      <path
         style="opacity:1;fill:none;fill-opacity:1;fill-rule:nonzero;stroke:#ffffff;stroke-width:3.14977384;stroke-linecap:round;stroke-linejoin:round;stroke-miterlimit:4;stroke-dasharray:none;stroke-dashoffset:0;stroke-opacity:1"
         id="path1954"
         sodipodi:type="arc"
         sodipodi:cx="-35.190819"
         sodipodi:cy="103.90476"
         sodipodi:rx="7.6358414"
         sodipodi:ry="8.0075073"
         sodipodi:start="0.34906585"
         sodipodi:end="2.7925268"
         d="m -28.015475,106.64349 a 7.6358414,8.0075073 0 0 1 -7.175344,5.26878 7.6358414,8.0075073 0 0 1 -7.175344,-5.26878"
         sodipodi:open="true" />
      <rect
         transform="rotate(-90)"
         style="opacity:1;fill:#ffffff;fill-opacity:1;fill-rule:nonzero;stroke:none;stroke-width:1.56920624;stroke-linecap:round;stroke-linejoin:round;stroke-miterlimit:4;stroke-dasharray:none;stroke-dashoffset:0;stroke-opacity:1"
         id="rect1956"
         width="2.4630289"
         height="8.9608059"
         x="-105.52103"
         y="-39.671223"
         ry="1.2315145" />
      <path
         transform="scale(1,-1)"
         sodipodi:open="true"
         d="m -28.015475,-101.93555 a 7.6358414,8.0075073 0 0 1 -7.175344,5.268779 7.6358414,8.0075073 0 0 1 -7.175344,-5.268779"
         sodipodi:end="2.7925268"
         sodipodi:start="0.34906585"
         sodipodi:ry="8.0075073"
         sodipodi:rx="7.6358414"
         sodipodi:cy="-104.67428"
         sodipodi:cx="-35.190819"
         sodipodi:type="arc"
         id="path1958"
         style="opacity:1;fill:none;fill-opacity:1;fill-rule:nonzero;stroke:#ffffff;stroke-width:3.14977384;stroke-linecap:round;stroke-linejoin:round;stroke-miterlimit:4;stroke-dasharray:none;stroke-dashoffset:0;stroke-opacity:1" />
    </g>
  </g>
  <g
     id="system-lock-screen"
     transform="translate(-21.137493,1.2682496)">
    <rect
       style="opacity:1;fill:none;fill-opacity:0.9956522;fill-rule:nonzero;stroke:none;stroke-width:6.86645555;stroke-linecap:round;stroke-linejoin:round;stroke-miterlimit:4;stroke-dasharray:none;stroke-dashoffset:0;stroke-opacity:1"
       id="rect1630"
       width="32"
       height="32"
       x="96.826729"
       y="94.484596"
       ry="0" />
    <g
       id="g1634"
       transform="matrix(0.94358619,0,0,0.93799722,91.612054,91.11562)"
       style="fill:#a18874;fill-opacity:1;stroke:#695647;stroke-width:2.44541931;stroke-miterlimit:4;stroke-dasharray:none;stroke-opacity:1">
      <circle
         r="16"
         cy="20.649298"
         cx="22.483027"
         id="circle1632"
         style="opacity:1;fill:#a18874;fill-opacity:1;fill-rule:nonzero;stroke:#695647;stroke-width:1.44559753;stroke-linecap:round;stroke-miterlimit:4;stroke-dasharray:none;stroke-dashoffset:0;stroke-opacity:1" />
    </g>
    <g
       transform="matrix(1.1287025,0,0,1.1287025,-13.909979,-15.70707)"
       id="g1698">
      <rect
         style="opacity:1;fill:none;fill-opacity:1;fill-rule:nonzero;stroke:#fbfafa;stroke-width:2.0883131;stroke-linecap:round;stroke-linejoin:round;stroke-miterlimit:4;stroke-dasharray:none;stroke-dashoffset:0;stroke-opacity:1"
         id="rect1688"
         width="13.033277"
         height="8.1457253"
         x="105.76867"
         y="110.02693"
         ry="1.6394112" />
      <path
         style="opacity:1;fill:none;fill-opacity:1;fill-rule:nonzero;stroke:#fbfafa;stroke-width:1.95899999;stroke-linecap:round;stroke-linejoin:round;stroke-miterlimit:4;stroke-dasharray:none;stroke-dashoffset:0;stroke-opacity:1"
         id="path1690"
         sodipodi:type="arc"
         sodipodi:cx="112.28531"
         sodipodi:cy="-108.7731"
         sodipodi:rx="4.5213056"
         sodipodi:ry="5.0070658"
         sodipodi:start="0"
         sodipodi:end="3.1415927"
         d="m 116.80661,-108.7731 a 4.5213056,5.0070658 0 0 1 -2.26065,4.33624 4.5213056,5.0070658 0 0 1 -4.5213,0 4.5213056,5.0070658 0 0 1 -2.26066,-4.33624"
         sodipodi:open="true"
         transform="scale(1,-1)" />
    </g>
  </g>
  <g
     transform="matrix(0.6875,0,0,0.6875,-12.568376,31.041841)"
     id="22-22-system-lock-screen">
    <rect
       ry="0"
       y="94.484596"
       x="96.826729"
       height="32"
       width="32"
       id="rect1708"
       style="opacity:1;fill:none;fill-opacity:0.9956522;fill-rule:nonzero;stroke:none;stroke-width:6.86645555;stroke-linecap:round;stroke-linejoin:round;stroke-miterlimit:4;stroke-dasharray:none;stroke-dashoffset:0;stroke-opacity:1" />
    <g
       style="fill:#a18874;fill-opacity:1;stroke:#695647;stroke-width:2.44541931;stroke-miterlimit:4;stroke-dasharray:none;stroke-opacity:1"
       transform="matrix(0.94358619,0,0,0.93799722,91.612054,91.11562)"
       id="g1712">
      <circle
         style="opacity:1;fill:#a18874;fill-opacity:1;fill-rule:nonzero;stroke:none;stroke-width:1.36520052;stroke-linecap:round;stroke-miterlimit:4;stroke-dasharray:none;stroke-dashoffset:0;stroke-opacity:1"
         id="circle1710"
         cx="22.483027"
         cy="20.649298"
         r="15.11823" />
    </g>
    <g
       id="g1718"
       transform="matrix(1.1287025,0,0,1.1287025,-13.909979,-15.70707)">
      <rect
         ry="1.4723535"
         y="110.1266"
         x="106.43272"
         height="7.3156672"
         width="11.705172"
         id="rect1714"
         style="opacity:1;fill:none;fill-opacity:1;fill-rule:nonzero;stroke:#fbfafa;stroke-width:1.87551177;stroke-linecap:round;stroke-linejoin:round;stroke-miterlimit:4;stroke-dasharray:none;stroke-dashoffset:0;stroke-opacity:1" />
      <path
         transform="scale(1,-1)"
         sodipodi:open="true"
         d="m 116.34589,-109.00054 a 4.0605798,4.4968405 0 0 1 -2.03029,3.89438 4.0605798,4.4968405 0 0 1 -4.06058,0 4.0605798,4.4968405 0 0 1 -2.03029,-3.89438"
         sodipodi:end="3.1415927"
         sodipodi:start="0"
         sodipodi:ry="4.4968405"
         sodipodi:rx="4.0605798"
         sodipodi:cy="-109.00054"
         sodipodi:cx="112.28531"
         sodipodi:type="arc"
         id="path1716"
         style="opacity:1;fill:none;fill-opacity:1;fill-rule:nonzero;stroke:#fbfafa;stroke-width:1.75937581;stroke-linecap:round;stroke-linejoin:round;stroke-miterlimit:4;stroke-dasharray:none;stroke-dashoffset:0;stroke-opacity:1" />
    </g>
  </g>
</svg>
